<svg width="158" height="48" viewBox="0 0 158 48" fill="none" xmlns="http://www.w3.org/2000/svg">
<path d="M28.6713 25.203H26.7163L27.6898 21.6979L28.6713 25.203Z" fill="white"/>
<path d="M13.8569 25.3416C14.1827 25.3416 14.6028 25.3422 14.92 25.5021C15.2672 25.6794 15.4944 26.0427 15.4944 26.4532C15.4942 26.79 15.323 27.1012 15.0574 27.2956C14.7615 27.5419 14.3578 27.5248 13.9932 27.5248H12.4075V25.3416H13.8569Z" fill="white"/>
<path d="M13.835 20.7309C14.5381 20.7309 15.2673 20.8517 15.2674 21.7547C15.2674 22.0312 15.147 22.3379 14.92 22.5453C14.6584 22.7916 14.238 22.7796 13.8907 22.7796H12.4075V20.7349L12.4025 20.7309H13.835Z" fill="white"/>
<path fill-rule="evenodd" clip-rule="evenodd" d="M158 36.5H0V12H158V36.5ZM61.3654 17.9645C60.1821 17.9645 58.9 18.1937 57.931 18.8807C56.9663 19.5635 56.391 20.7264 56.391 21.9063C56.3912 24.7756 59.0626 25.3893 61.3136 25.8301C61.8538 25.9382 62.7796 26.0764 62.7799 26.815C62.7799 27.4847 61.8329 27.5547 61.3654 27.5547C60.302 27.5547 59.4954 27.1651 59.1823 26.0933L55.7778 26.7114L55.8395 26.9576C56.5617 29.4041 58.7335 30.3938 61.1673 30.3939C63.6797 30.3939 66.5096 29.2314 66.5099 26.3276C66.5099 25.0051 65.9009 23.8765 64.726 23.2411C63.68 22.6968 62.4795 22.5028 61.3435 22.2781C60.8889 22.17 60.0185 22.0481 60.0185 21.4128C60.0188 20.778 60.7174 20.6392 61.2061 20.6392C62.128 20.6392 62.7927 20.9598 63.1443 21.8544L66.1754 20.9203C65.4507 18.8246 63.4361 17.9646 61.3654 17.9645ZM88.0587 17.9645C86.8712 17.9645 85.6021 18.1936 84.6204 18.8807C83.66 19.5635 83.0854 20.7264 83.0854 21.9063C83.0856 24.7755 85.7564 25.3893 88.003 25.8301C88.5431 25.9382 89.4739 26.0763 89.4743 26.815C89.4743 27.4849 88.5307 27.5547 88.0547 27.5547C86.9957 27.5547 86.19 27.1651 85.8727 26.0933L82.4722 26.7114L82.5458 26.9576C83.2679 29.4043 85.4406 30.3939 87.8746 30.3939C90.3869 30.3939 93.2119 29.2314 93.2122 26.3276C93.2122 25.0051 92.6039 23.8765 91.4333 23.2411C90.3786 22.6966 89.182 22.5028 88.0458 22.2781C87.5913 22.17 86.7208 22.048 86.7208 21.4128C86.7212 20.778 87.42 20.6392 87.9044 20.6392C88.8306 20.6392 89.491 20.9598 89.8426 21.8544L92.8788 20.9203C92.1456 18.8243 90.1426 17.9645 88.0587 17.9645ZM144.795 17.9645C143.607 17.9645 142.329 18.1936 141.356 18.8807C140.396 19.5635 139.821 20.7264 139.821 21.9063C139.821 24.7756 142.489 25.3893 144.747 25.8301C145.284 25.9382 146.209 26.0765 146.21 26.815C146.21 27.4848 145.27 27.5547 144.799 27.5547C143.736 27.5547 142.929 27.1651 142.616 26.0933L139.212 26.7114L139.268 26.9576C139.987 29.4044 142.159 30.3939 144.597 30.3939C147.114 30.3939 149.935 29.2314 149.936 26.3276C149.936 25.0051 149.327 23.8765 148.16 23.2411C147.114 22.6966 145.905 22.5028 144.768 22.2781C144.323 22.17 143.448 22.0481 143.448 21.4128C143.449 20.7779 144.143 20.6392 144.636 20.6392C145.561 20.6392 146.226 20.9599 146.574 21.8544L149.609 20.9203C148.876 18.8246 146.874 17.9646 144.795 17.9645ZM22.39 30.2165H25.3784L26.107 27.8439H29.3065L29.9873 30.2165H33.7353L29.9873 18.1459H26.103L22.39 30.2165ZM9.03284 30.2125H14.5208C15.6013 30.2125 16.8919 30.1954 17.8138 29.5256C18.6712 28.9121 19.0441 27.7494 19.0442 26.7124C19.0442 25.2691 18.0972 24.2101 16.7168 23.9679C17.9385 23.6566 18.7444 22.5804 18.7446 21.3101C18.7446 20.325 18.2729 19.3395 17.4714 18.756C16.7168 18.2115 15.7901 18.1419 14.8812 18.1419H9.03284V30.2125ZM37.6245 30.2125H46.6196V27.3294H41.2261V25.3765H45.5863V22.6839H41.2261V20.9253H46.6196V18.1459H37.6245V30.2125ZM73.0561 25.1123V30.2125H76.6188V25.1123L80.3708 18.1459H77.1554L75.1485 22.1176L73.0561 18.1459H69.0215L73.0561 25.1123ZM96.5142 21.0459H99.0307V30.2125H102.517V21.0459H104.978V18.1459H96.5142V21.0459ZM109.013 30.2125H118.001V27.3294H112.607V25.3765H116.975V22.6839H112.607V20.9253H118.001V18.1459H109.013V30.2125ZM122.52 30.2125H125.277V21.5903L127.567 30.2125H129.903L132.085 21.5903L132.116 30.2125H135.541V18.1459H130.705L129.063 24.5461L127.314 18.1459H122.52V30.2125Z" fill="white"/>
</svg>
