<svg xmlns="http://www.w3.org/2000/svg" width="32" height="32" fill="none"><g clip-path="url(#a)"><path fill="#fff" d="M4 6.666h24v18.667H4z"/><path fill="#0b0f19" d="M20.623 0c3.982 0 5.973 0 7.494.775a7.1 7.1 0 0 1 3.107 3.108C32 5.403 32 7.395 32 11.377v9.246c0 3.982 0 5.973-.775 7.494a7.1 7.1 0 0 1-3.108 3.107c-1.52.776-3.512.776-7.494.776h-9.246c-3.982 0-5.973 0-7.494-.775a7.1 7.1 0 0 1-3.107-3.108C0 26.597 0 24.605 0 20.623v-9.246c0-3.982 0-5.973.775-7.494A7.1 7.1 0 0 1 3.883.776C5.403 0 7.395 0 11.377 0zm-9.904 10.005a5.94 5.94 0 0 0-4.24 1.754A5.95 5.95 0 0 0 4.727 16a5.95 5.95 0 0 0 1.752 4.241 5.94 5.94 0 0 0 4.24 1.754 5.94 5.94 0 0 0 4.24-1.754l5.273-5.276a1.453 1.453 0 0 1 2.07 0 1.456 1.456 0 0 1 0 2.07 1.455 1.455 0 0 1-2.07 0l-.101-.102-.704.707.1.1a2.46 2.46 0 0 0 1.74.717c.656 0 1.28-.258 1.738-.717a2.46 2.46 0 0 0 .718-1.74c0-.656-.259-1.281-.718-1.74a2.46 2.46 0 0 0-1.738-.717c-.656 0-1.282.258-1.74.717l-5.274 5.276a4.94 4.94 0 0 1-3.534 1.468 4.94 4.94 0 0 1-3.535-1.467 5 5 0 0 1 1.621-8.16 4.99 4.99 0 0 1 5.448 1.087l.102.101.704-.706-.1-.1a5.95 5.95 0 0 0-4.24-1.754m10.546 0a5.94 5.94 0 0 0-4.238 1.754l-5.274 5.276a1.453 1.453 0 0 1-2.069 0 1.456 1.456 0 0 1 0-2.07 1.453 1.453 0 0 1 2.07 0l.1.102.706-.707-.103-.1a2.46 2.46 0 0 0-1.738-.717c-.656 0-1.282.258-1.74.717A2.46 2.46 0 0 0 8.263 16c0 .656.258 1.281.716 1.74a2.46 2.46 0 0 0 1.74.717c.656 0 1.28-.258 1.738-.717l5.276-5.276a4.94 4.94 0 0 1 3.534-1.468c1.342 0 2.585.517 3.536 1.467a5.002 5.002 0 0 1-5.449 8.16 5 5 0 0 1-1.62-1.087l-.102-.101-.705.706.101.1a6 6 0 0 0 4.24 1.754 5.98 5.98 0 0 0 4.24-1.754A5.95 5.95 0 0 0 27.258 16a5.95 5.95 0 0 0-1.751-4.241 5.95 5.95 0 0 0-4.242-1.754m0 1.768a4.18 4.18 0 0 0-2.988 1.236l-5.274 5.278a3.16 3.16 0 0 1-2.284.949 3.21 3.21 0 0 1-2.284-.95h-.002A3.16 3.16 0 0 1 7.484 16c0-.867.344-1.68.95-2.285a3.16 3.16 0 0 1 2.285-.951c.866 0 1.678.344 2.284.95l.101.102.705-.707-.101-.1a4.22 4.22 0 0 0-2.99-1.236A4.224 4.224 0 0 0 6.496 16a4.22 4.22 0 0 0 4.224 4.227c1.129 0 2.186-.432 2.989-1.236l5.275-5.276a3.16 3.16 0 0 1 2.284-.951c.866 0 1.678.344 2.284.95A3.16 3.16 0 0 1 24.5 16c0 .867-.343 1.68-.95 2.285v.002a3.16 3.16 0 0 1-2.283.949 3.21 3.21 0 0 1-2.284-.95l-.102-.102-.706.707.102.1a4.22 4.22 0 0 0 2.99 1.236A4.22 4.22 0 0 0 25.49 16a4.22 4.22 0 0 0-4.226-4.227"/></g><defs><clipPath id="a"><path fill="#fff" d="M0 0h32v32H0z"/></clipPath></defs></svg>