<svg width="116" height="48" viewBox="0 0 116 48" fill="none" xmlns="http://www.w3.org/2000/svg">
<g clip-path="url(#clip0_957_385)">
<path d="M102.327 9.14583V1.70639L100.982 0V6.25354H101.083V6.72957L101.555 6.73022L101.56 7.19273H101.092L101.092 7.57472C101.092 7.57472 102.092 7.79888 102.092 8.80314C102.092 9.79257 101.089 10.0509 101.089 10.0509L101.08 10.1469L102.331 10.2119L102.327 9.14583ZM99.312 9.14583V1.70639L100.659 0V6.25354H100.557V6.72957L100.085 6.73022L100.081 7.19273H100.546L100.547 7.57472C100.547 7.57472 99.5478 7.79888 99.5478 8.80314C99.5478 9.79257 100.55 10.0509 100.55 10.0509L100.546 10.0657L99.3281 10.114L99.312 9.14583ZM107.619 14.341C107.619 14.341 107.653 13.9461 107.17 13.9461C106.683 13.9461 106.387 14.4866 106.841 14.8795C106.841 14.8795 106.222 14.9246 106.222 15.3723C106.222 15.8194 106.771 15.8715 106.875 15.8715C106.875 15.8715 106.763 16.4687 106.426 16.4687C106.071 16.4687 105.933 15.8715 105.933 15.8715C105.714 16.5737 105.075 16.4764 105.075 16.4764C104.556 16.4764 104.626 15.9533 104.626 15.9533C104.626 15.9533 105.656 16.1318 105.656 15.4754C105.656 14.8183 104.859 14.9311 104.859 14.9311C104.859 14.9311 105.376 13.9745 104.4 13.9745H104.392C103.414 13.9745 103.932 14.9311 103.932 14.9311C103.932 14.9311 103.135 14.8183 103.135 15.4754C103.135 16.1318 104.165 15.9533 104.165 15.9533C104.165 15.9533 104.25 16.3933 103.749 16.4835L103.093 16.4764C102.693 16.4764 102.555 15.8864 102.555 15.8864C102.408 16.4448 101.994 16.4764 101.994 16.4764H101.447C100.93 16.4764 100.998 15.9533 100.998 15.9533C100.998 15.9533 102.027 16.1318 102.027 15.4754C102.027 14.8183 101.232 14.9311 101.232 14.9311C101.232 14.9311 101.752 13.9745 100.772 13.9745H100.763C99.7848 13.9745 100.303 14.9311 100.303 14.9311C100.303 14.9311 99.5079 14.8183 99.5079 15.4754C99.5079 16.1318 100.537 15.9533 100.537 15.9533C100.537 15.9533 100.623 16.3933 100.122 16.4835L99.4641 16.4764C99.0666 16.4764 98.9281 15.8864 98.9281 15.8864C98.7806 16.4448 98.3657 16.4764 98.3657 16.4764H97.806C97.2861 16.4764 97.357 15.9533 97.357 15.9533C97.357 15.9533 98.3864 16.1318 98.3864 15.4754C98.3864 14.8183 97.5915 14.9311 97.5915 14.9311C97.5915 14.9311 98.1087 13.9745 97.1328 13.9745H97.1232C96.1453 13.9745 96.6632 14.9311 96.6632 14.9311C96.6632 14.9311 95.8677 14.8183 95.8677 15.4754C95.8677 16.1318 96.8971 15.9533 96.8971 15.9533C96.8971 15.9533 96.9827 16.3933 96.4809 16.4835L96.222 16.4764C95.8258 16.4764 95.6867 15.8864 95.6867 15.8864C95.5392 16.4448 95.1237 16.4764 95.1237 16.4764C94.819 16.4764 94.7462 15.9765 94.7462 15.9765C94.8506 15.9765 95.3994 15.9231 95.3994 15.4767C95.3994 15.029 94.7816 14.9832 94.7816 14.9832C95.2358 14.5909 94.9362 14.0498 94.4518 14.0498C93.9687 14.0498 94.0041 14.446 94.0041 14.446L94.7591 16.9647H106.836L107.619 14.341ZM93.6157 14.8866C92.7036 15.6326 92.7209 14.7372 92.7209 14.7372C92.7209 14.7372 92.6379 14.0189 92.0871 14.1961C91.5106 14.3835 91.7302 14.8873 91.7302 14.8873C91.7302 14.8873 92.1425 15.4638 91.6768 15.726C91.211 15.9868 91.0429 15.5585 90.9482 15.4264C90.8574 15.2969 90.6313 14.8873 90.2409 15.1481C89.8473 15.4084 90.2242 15.8754 90.2242 15.8754C90.2242 15.8754 90.6326 16.3218 90.2615 16.6941C89.8899 17.0665 89.6277 16.6761 89.6277 16.6761C89.6277 16.6761 89.3964 16.3869 89.1246 16.6561C88.8547 16.9273 89.2186 17.4208 89.2186 17.4208C89.7217 17.9483 89.9027 18.4405 89.9665 18.7497C90.1101 18.5236 90.9495 17.2546 92.3241 16.5022C92.3241 16.5022 92.5168 16.4101 92.5844 16.4828C92.5844 16.4828 92.6778 16.6323 92.4903 16.7824C92.3067 16.9293 91.5995 17.2797 90.3917 18.796C91.4706 18.1564 92.2926 18.9126 92.2926 18.9126C92.2926 18.9126 92.8595 19.4254 93.2421 19.0421C93.6254 18.6608 93.1686 18.2975 93.0385 18.224C92.9071 18.1487 92.7396 17.9245 92.9458 17.6462C93.2099 17.2829 93.7097 17.5902 93.8418 17.6462C93.97 17.7016 94.1561 17.6642 94.1561 17.6642L93.6157 14.8866ZM88.0939 18.7394L89.0138 18.0855C89.0138 18.0855 88.494 17.0613 87.8865 17.4762C87.2797 17.8929 88.0939 18.7394 88.0939 18.7394ZM88.1815 19.0511L89.2669 18.2936C89.2669 18.2936 89.5923 18.9023 89.133 19.2135C88.5983 19.5555 88.1815 19.0511 88.1815 19.0511ZM85.7949 24.4376L86.8906 24.1729C86.8906 24.1729 86.7888 23.0295 86.0712 23.1886C85.3524 23.3483 85.7949 24.4376 85.7949 24.4376ZM85.7614 24.761L87.0465 24.4589C87.0465 24.4589 87.1245 25.1468 86.5827 25.2641C85.9605 25.3826 85.7614 24.761 85.7614 24.761ZM87.69 30.9185L87.8034 29.7964C87.8034 29.7964 86.6897 29.5143 86.6033 30.2493C86.517 30.9817 87.69 30.9185 87.69 30.9185ZM87.9844 31.0558L88.1242 29.7397C88.1242 29.7397 88.7961 29.893 88.7291 30.4464C88.6382 31.0731 87.9844 31.0558 87.9844 31.0558ZM90.2036 28.2195L90.878 29.1226C90.878 29.1226 91.8893 28.5777 91.4577 27.9818C91.03 27.3834 90.2036 28.2195 90.2036 28.2195ZM89.8931 28.3142L90.677 29.3803C90.677 29.3803 90.0767 29.7204 89.7533 29.2676C89.4003 28.7419 89.8931 28.3142 89.8931 28.3142ZM89.4589 23.6556L89.8879 24.6998C89.8879 24.6998 91.0017 24.426 90.7344 23.74C90.4677 23.0527 89.4589 23.6556 89.4589 23.6556ZM89.1362 23.6711L89.6277 24.8969C89.6277 24.8969 88.9597 25.0779 88.7619 24.5587C88.5519 23.9609 89.1362 23.6711 89.1362 23.6711ZM91.5872 19.1896L91.3231 20.286C91.3231 20.286 92.386 20.7169 92.5722 20.0038C92.759 19.2908 91.5872 19.1896 91.5872 19.1896ZM91.3154 19.0131L90.9952 20.2944C90.9952 20.2944 90.3498 20.0509 90.4934 19.5136C90.6712 18.9055 91.3154 19.0131 91.3154 19.0131Z" fill="white"/>
<path d="M90.5659 21.3018C90.5659 21.3018 90.9672 21.316 90.9814 20.9604C90.9988 20.5849 90.7269 20.4876 90.5086 20.478C90.4693 20.4773 90.1176 20.5269 89.9205 20.4419C89.628 20.3137 89.9024 20.0283 89.9024 20.0283C89.9024 20.0283 90.2625 19.5967 89.8483 19.4125C89.3046 19.1703 89.2434 19.8724 89.085 19.9465C88.9297 20.018 88.6907 19.9092 88.6907 19.9092C88.4717 19.817 88.3738 19.685 88.3738 19.685C88.3738 19.685 88.0421 19.3526 87.7638 19.5793C87.5106 19.7887 87.8385 20.1578 87.8385 20.1578C87.8385 20.1578 88.1335 20.5604 87.9712 20.7962C87.7799 21.0796 87.1712 20.8258 87.1712 20.8258C87.1712 20.8258 86.7447 20.583 86.5322 20.9746C86.2513 21.4938 86.8452 21.7611 86.8452 21.7611C86.8452 21.7611 87.4063 21.966 87.347 22.2945C87.3045 22.5625 86.9914 22.5187 86.9914 22.5187C86.9914 22.5187 86.6571 22.4723 86.6333 22.6965C86.6062 22.9921 87.0043 23.1409 87.0043 23.1409C87.0043 23.1409 87.6292 23.3406 87.8939 23.8772C87.9525 23.5905 88.2869 22.0027 88.6096 21.2619C88.6096 21.2619 88.7442 21.0532 88.8763 21.1131C89.0109 21.173 88.9504 21.3952 88.9504 21.3952C88.9504 21.3952 88.4183 22.8845 88.3326 23.7948C88.5703 23.5145 88.9007 23.186 89.2016 23.0965C89.7517 22.9335 89.914 22.9921 90.0776 23.0224C90.2387 23.052 90.6716 23.1564 90.7746 22.8143C90.8932 22.4233 90.6265 22.2108 90.2258 22.1766C89.8837 22.1476 89.7891 21.9879 89.8245 21.7025C89.8689 21.3463 90.5659 21.3018 90.5659 21.3018ZM89.8992 26.8069C89.6725 26.8397 89.4702 26.8069 89.3491 26.5415C89.19 26.182 89.6712 25.9727 89.7523 25.9353C89.8367 25.8979 90.0454 25.7878 89.9456 25.467C89.8451 25.1514 89.4451 25.257 89.3394 25.2924C89.1004 25.3768 89.0624 25.5417 88.7333 25.6055C88.4041 25.6693 88.4118 25.5501 88.3397 25.0444C88.2656 24.54 87.9094 24.6128 87.9094 24.6128C87.2755 24.6315 87.6163 25.467 87.4585 25.6422C87.3019 25.8168 87.0552 25.6789 86.815 25.6235C86.5773 25.5688 86.3279 25.5411 86.2268 25.9089C86.1263 26.2761 86.5953 26.497 86.815 26.5138C87.0011 26.5312 87.2098 26.497 87.2304 26.8816C87.2459 27.232 87.0745 27.3041 86.7267 27.4066C86.4117 27.4948 86.3119 27.6906 86.375 27.9754C86.4529 28.3187 86.8388 28.3477 87.139 28.2685C87.414 28.1937 87.796 28.2871 87.8546 28.4611C87.9287 28.6711 87.7348 28.8192 87.7348 28.8192C87.7348 28.8192 87.4585 29.0221 87.6066 29.2134C87.7541 29.4054 87.9364 29.2321 88.2411 29.1593C88.3848 29.1252 88.5651 29.2006 88.7159 29.2888C88.618 29.1014 88.0369 27.9148 88.1374 26.6613C88.1374 26.6613 88.1548 26.4758 88.2914 26.4758C88.4312 26.4758 88.4582 26.6613 88.4582 26.6613C88.4582 26.6613 88.5323 28.0784 89.0457 28.9893C89.2067 27.9277 90.0551 27.7409 90.2902 27.6617C90.5556 27.5695 90.7405 27.4961 90.7295 27.1573C90.7147 26.7418 90.2136 26.7624 89.8992 26.8069ZM93.0633 35.7878L92.7 34.721C92.7 34.721 91.5702 34.9285 91.7956 35.6293C92.0217 36.3308 93.0633 35.7878 93.0633 35.7878ZM93.3886 35.7904L92.9693 34.5375C92.9693 34.5375 93.645 34.3977 93.8119 34.9265C93.9909 35.5359 93.3886 35.7904 93.3886 35.7904ZM93.2585 32.2004L94.3742 32.3563C94.3742 32.3563 94.6995 31.2561 93.9703 31.1395C93.245 31.0255 93.2585 32.2004 93.2585 32.2004ZM93.1078 32.4903L94.4141 32.6823C94.4141 32.6823 94.2351 33.3503 93.6849 33.2588C93.0627 33.1416 93.1078 32.4903 93.1078 32.4903ZM99.6602 35.172C96.7383 35.1874 95.8287 34.6599 95.743 34.6289C95.6567 34.598 95.6104 34.5568 95.6471 34.4118C95.6877 34.2708 95.8873 34.3262 95.8873 34.3262C97.2678 34.7152 99.0102 34.7964 99.6602 34.8029L99.6525 34.4943C99.0096 34.227 99.0663 33.7754 99.0663 33.7754C99.0663 33.7754 99.152 33.2562 98.9317 33.1763C98.6173 33.0578 98.4633 33.3702 98.4633 33.3702C98.4633 33.3702 98.2147 33.8521 97.8372 33.7078C97.4585 33.5648 97.4584 33.1222 97.4584 33.1222C97.4584 33.1222 97.51 32.5605 97.0958 32.4955C96.6835 32.4323 96.6011 32.8214 96.6011 32.8214C96.6011 32.8214 96.4677 33.3032 96.1308 33.3284C95.7926 33.3541 95.7018 32.9902 95.7018 32.9902C95.7018 32.9902 95.5582 32.5083 95.2445 32.5483C94.9069 32.5902 94.9713 32.9245 94.9868 33.1203C94.999 33.3161 95.1156 33.7058 94.6067 33.5893C94.007 33.4508 93.9819 33.9274 93.9819 33.9274C93.9542 34.2283 94.1442 34.3371 94.3742 34.4099C94.6016 34.4801 94.7079 34.6064 94.7504 34.7745C94.8019 34.9826 94.6602 35.0869 94.5282 35.2177C94.398 35.3459 94.257 35.5926 94.4103 35.7775C94.6042 36.0113 95.0216 35.659 95.0216 35.659C95.0216 35.659 95.2786 35.3942 95.4822 35.4766C95.7662 35.5952 95.6619 35.9063 95.6619 35.9063C95.6619 35.9063 95.4796 36.4017 95.8165 36.5814C96.156 36.7656 96.5199 36.1537 96.5199 36.1537C96.5199 36.1537 96.755 35.7743 97.2233 35.8644C97.6485 35.9475 97.6523 36.3327 97.6523 36.3327C97.6523 36.3327 97.6523 36.8564 98.0562 36.8674C98.4601 36.8809 98.4601 36.5157 98.8273 35.9166C98.9127 35.7689 99.0344 35.6454 99.1808 35.5577C99.3272 35.47 99.4935 35.4211 99.6641 35.4155L99.6602 35.172ZM107.975 14.8866C108.888 15.6326 108.87 14.7372 108.87 14.7372C108.87 14.7372 108.955 14.0189 109.504 14.1961C110.08 14.3835 109.86 14.8873 109.86 14.8873C109.86 14.8873 109.448 15.4638 109.915 15.726C110.38 15.9868 110.548 15.5585 110.643 15.4264C110.735 15.2969 110.959 14.8873 111.35 15.1481C111.742 15.4084 111.367 15.8754 111.367 15.8754C111.367 15.8754 110.959 16.3218 111.331 16.6941C111.703 17.0665 111.964 16.6761 111.964 16.6761C111.964 16.6761 112.194 16.3869 112.466 16.6561C112.735 16.9273 112.373 17.4208 112.373 17.4208C111.87 17.9483 111.689 18.4405 111.626 18.7497C111.482 18.5236 110.642 17.2546 109.267 16.5022C109.267 16.5022 109.074 16.4101 109.006 16.4828C109.006 16.4828 108.913 16.6323 109.1 16.7824C109.284 16.9293 109.991 17.2797 111.199 18.796C110.119 18.1564 109.298 18.9126 109.298 18.9126C109.298 18.9126 108.731 19.4254 108.348 19.0421C107.966 18.6608 108.421 18.2975 108.552 18.224C108.684 18.1487 108.852 17.9245 108.646 17.6462C108.38 17.2829 107.88 17.5902 107.75 17.6462C107.621 17.7016 107.433 17.6642 107.433 17.6642L107.975 14.8866ZM111.022 21.3018C111.022 21.3018 110.622 21.316 110.606 20.9604C110.59 20.5849 110.861 20.4876 111.079 20.478C111.119 20.4773 111.472 20.5269 111.668 20.4419C111.961 20.3137 111.687 20.0283 111.687 20.0283C111.687 20.0283 111.325 19.5967 111.74 19.4125C112.283 19.1703 112.344 19.8724 112.504 19.9465C112.658 20.018 112.897 19.9092 112.897 19.9092C113.117 19.817 113.215 19.685 113.215 19.685C113.215 19.685 113.546 19.3526 113.825 19.5793C114.079 19.7887 113.75 20.1578 113.75 20.1578C113.75 20.1578 113.457 20.5604 113.618 20.7962C113.811 21.0796 114.419 20.8258 114.419 20.8258C114.419 20.8258 114.846 20.583 115.057 20.9746C115.338 21.4938 114.744 21.7611 114.744 21.7611C114.744 21.7611 114.184 21.966 114.241 22.2945C114.286 22.5625 114.598 22.5187 114.598 22.5187C114.598 22.5187 114.933 22.4723 114.956 22.6965C114.984 22.9921 114.584 23.1409 114.584 23.1409C114.584 23.1409 113.959 23.3406 113.695 23.8772C113.637 23.5905 113.303 22.0027 112.98 21.2619C112.98 21.2619 112.846 21.0532 112.715 21.1131C112.58 21.173 112.639 21.3952 112.639 21.3952C112.639 21.3952 113.171 22.8845 113.257 23.7948C113.019 23.5145 112.689 23.186 112.387 23.0965C111.837 22.9335 111.675 22.9921 111.513 23.0224C111.35 23.052 110.918 23.1564 110.815 22.8143C110.696 22.4233 110.963 22.2108 111.363 22.1766C111.705 22.1476 111.8 21.9879 111.765 21.7025C111.72 21.3463 111.022 21.3018 111.022 21.3018ZM111.687 26.8069C111.914 26.8397 112.116 26.8069 112.238 26.5415C112.397 26.182 111.916 25.9727 111.833 25.9353C111.75 25.8979 111.541 25.7878 111.642 25.467C111.741 25.1514 112.14 25.257 112.247 25.2924C112.485 25.3768 112.522 25.5417 112.853 25.6055C113.182 25.6699 113.173 25.5501 113.246 25.0444C113.322 24.54 113.678 24.6128 113.678 24.6128C114.312 24.6315 113.971 25.467 114.128 25.6422C114.285 25.8161 114.532 25.6789 114.772 25.6235C115.011 25.5688 115.258 25.5411 115.36 25.9089C115.46 26.2761 114.991 26.497 114.772 26.5138C114.586 26.5312 114.376 26.497 114.357 26.8816C114.341 27.232 114.513 27.3041 114.861 27.4066C115.174 27.4948 115.275 27.6906 115.211 27.9754C115.134 28.3187 114.748 28.3477 114.45 28.2685C114.173 28.1937 113.791 28.2871 113.733 28.4611C113.659 28.6711 113.852 28.8192 113.852 28.8192C113.852 28.8192 114.128 29.0221 113.981 29.2134C113.833 29.4054 113.649 29.2321 113.347 29.1593C113.203 29.1252 113.022 29.2006 112.873 29.2888C112.969 29.1014 113.551 27.9148 113.45 26.6613C113.45 26.6613 113.434 26.4758 113.295 26.4758C113.157 26.4758 113.13 26.6613 113.13 26.6613C113.13 26.6613 113.054 28.0784 112.543 28.9893C112.381 27.9277 111.531 27.7409 111.297 27.6617C111.032 27.5695 110.847 27.4961 110.858 27.1573C110.872 26.7418 111.374 26.7624 111.687 26.8069ZM105.845 34.6296C105.932 34.5987 105.978 34.5574 105.94 34.4125C105.9 34.2714 105.7 34.3268 105.7 34.3268C104.132 34.7429 102.228 34.7971 101.957 34.7964L101.963 34.4846C102.694 34.1838 102.522 33.7761 102.522 33.7761C102.522 33.7761 102.441 33.2388 102.655 33.177C102.978 33.0823 103.125 33.3709 103.125 33.3709C103.125 33.3709 103.373 33.8527 103.749 33.7084C104.127 33.5654 104.127 33.1229 104.127 33.1229C104.127 33.1229 104.076 32.5612 104.493 32.4961C104.904 32.433 104.986 32.8221 104.986 32.8221C104.986 32.8221 105.119 33.3039 105.457 33.329C105.794 33.3548 105.886 32.9908 105.886 32.9908C105.886 32.9908 106.029 32.509 106.344 32.5489C106.68 32.5908 106.618 32.9264 106.6 33.1209C106.588 33.3168 106.471 33.7065 106.98 33.5899C107.581 33.4514 107.606 33.9281 107.606 33.9281C107.632 34.2289 107.445 34.3378 107.214 34.4106C106.986 34.4808 106.879 34.607 106.837 34.7752C106.786 34.9832 106.93 35.0876 107.059 35.2183C107.189 35.3465 107.33 35.5932 107.178 35.7781C106.982 36.012 106.566 35.6596 106.566 35.6596C106.566 35.6596 106.31 35.3948 106.106 35.4773C105.822 35.5958 105.926 35.907 105.926 35.907C105.926 35.907 106.11 36.4023 105.771 36.582C105.432 36.7663 105.067 36.1543 105.067 36.1543C105.067 36.1543 104.832 35.7749 104.365 35.8651C103.938 35.9482 103.935 36.3334 103.935 36.3334C103.935 36.3334 103.935 36.8571 103.532 36.868C103.129 36.8816 103.087 36.5395 102.761 35.9173C102.543 35.5024 101.977 35.4103 101.977 35.4103L101.973 35.1494C104.911 35.1623 105.758 34.6605 105.845 34.6296ZM113.514 18.7394L112.593 18.0855C112.593 18.0855 113.113 17.0613 113.722 17.4762C114.33 17.8929 113.514 18.7394 113.514 18.7394Z" fill="white"/>
<path d="M113.426 19.0513L112.343 18.2937C112.343 18.2937 112.017 18.9025 112.478 19.2136C113.013 19.5556 113.426 19.0513 113.426 19.0513ZM115.815 24.4378L114.719 24.173C114.719 24.173 114.82 23.0296 115.54 23.1887C116.257 23.3485 115.815 24.4378 115.815 24.4378ZM115.848 24.7611L114.561 24.459C114.561 24.459 114.485 25.147 115.028 25.2642C115.651 25.3827 115.848 24.7611 115.848 24.7611ZM113.918 30.9187L113.806 29.7965C113.806 29.7965 114.92 29.5144 115.004 30.2494C115.091 30.9818 113.918 30.9187 113.918 30.9187ZM113.625 31.0559L113.485 29.7399C113.485 29.7399 112.811 29.8932 112.878 30.4465C112.971 31.0733 113.625 31.0559 113.625 31.0559ZM111.405 28.2196L110.73 29.1227C110.73 29.1227 109.72 28.5778 110.149 27.9819C110.58 27.3835 111.405 28.2196 111.405 28.2196ZM111.715 28.3143L110.935 29.3804C110.935 29.3804 111.535 29.7205 111.857 29.2677C112.21 28.742 111.715 28.3143 111.715 28.3143ZM112.149 23.6557L111.723 24.6999C111.723 24.6999 110.607 24.4262 110.874 23.7401C111.139 23.0528 112.149 23.6557 112.149 23.6557ZM112.473 23.6712L111.982 24.897C111.982 24.897 112.649 25.078 112.849 24.5589C113.059 23.9611 112.473 23.6712 112.473 23.6712ZM110.022 19.1898L110.287 20.2861C110.287 20.2861 109.222 20.7171 109.036 20.004C108.852 19.2909 110.022 19.1898 110.022 19.1898ZM110.295 19.0132L110.613 20.2945C110.613 20.2945 111.259 20.051 111.116 19.5138C110.938 18.9057 110.295 19.0132 110.295 19.0132ZM108.544 35.7879L108.907 34.7212C108.907 34.7212 110.035 34.9286 109.812 35.6294C109.586 36.3309 108.544 35.7879 108.544 35.7879ZM108.218 35.7905L108.639 34.5376C108.639 34.5376 107.962 34.3978 107.794 34.9267C107.616 35.536 108.218 35.7905 108.218 35.7905ZM108.348 32.2006L107.233 32.3564C107.233 32.3564 106.909 31.2562 107.637 31.1396C108.362 31.0256 108.348 32.2006 108.348 32.2006ZM108.499 32.4904L107.191 32.6824C107.191 32.6824 107.372 33.3504 107.922 33.2589C108.544 33.1417 108.499 32.4904 108.499 32.4904ZM100.816 13.7524H101.458L101.463 13.726C101.676 12.3558 101.233 10.6585 101.233 10.6585C103.252 11.7555 103.56 13.6847 103.56 13.6847V13.7524H105.006L105.005 13.7124C104.497 11.2749 102.39 10.7242 102.39 10.7242C105.257 11.1815 106.17 13.697 106.17 13.697L106.174 13.7524H107.471C107.471 13.7524 106.579 10.0394 100.777 10.0394H100.718C94.9181 10.0394 94.2172 13.7524 94.2172 13.7524H95.5146L95.5185 13.697C95.5185 13.697 96.2406 11.1815 99.1077 10.7242C99.1077 10.7242 96.9614 11.2756 96.4531 13.7124V13.7524H97.8986V13.6847C97.8986 13.6847 98.2452 11.7555 100.264 10.6585C100.264 10.6585 99.8086 12.3558 100.022 13.726L100.028 13.7524H100.816ZM100.807 32.6386C100.807 32.5555 100.52 32.1767 97.6648 31.7703C94.8112 31.3638 94.8376 29.4938 94.8376 29.4938V18.2242H106.777V29.4951C106.777 29.4951 106.802 31.3638 103.949 31.7715C101.091 32.178 100.806 32.5581 100.807 32.6386ZM99.9973 24.1073L100.359 20.8936C100.359 20.8936 100.428 20.6146 100.184 20.6146C99.8356 20.6146 99.7139 21.054 99.9806 21.3142C99.9806 21.3142 99.4021 21.1776 99.4021 21.702C99.4021 22.2038 99.9303 22.0943 100.004 22.0943C100.004 22.0943 99.9812 22.4434 99.6591 22.5922C99.6591 22.5922 99.2127 22.8364 99.0974 22.1362C99.006 22.7887 98.5795 22.6347 98.5795 22.6347C98.2864 22.5439 98.2993 21.9777 98.2993 21.9777C98.2993 21.9777 98.9048 22.1941 98.9048 21.691C98.9048 21.1879 98.4372 21.3529 98.4372 21.3529C98.4372 21.3529 98.7425 20.6217 98.1673 20.6217H98.1254C97.5502 20.6217 97.8568 21.3529 97.8568 21.3529C97.8568 21.3529 97.3885 21.1886 97.3885 21.691C97.3885 22.1941 97.9946 21.9777 97.9946 21.9777C97.9946 21.9777 98.0082 22.5433 97.7144 22.6347C97.7144 22.6347 97.2867 22.788 97.1965 22.1362C97.0799 22.8364 96.6335 22.5922 96.6335 22.5922C96.3127 22.4434 96.2889 22.0943 96.2889 22.0943C96.363 22.0943 96.8931 22.2031 96.8931 21.702C96.8931 21.1783 96.314 21.3142 96.314 21.3142C96.5788 21.054 96.457 20.6146 96.1092 20.6146C95.867 20.6146 95.9359 20.8936 95.9359 20.8936L96.2934 24.1073H99.9973ZM105.284 24.1073L105.643 20.8936C105.643 20.8936 105.712 20.6146 105.469 20.6146C105.122 20.6146 104.999 21.054 105.264 21.3142C105.264 21.3142 104.687 21.1776 104.687 21.702C104.687 22.2038 105.215 22.0943 105.289 22.0943C105.289 22.0943 105.266 22.4434 104.944 22.5922C104.944 22.5922 104.499 22.8364 104.382 22.1362C104.292 22.7887 103.864 22.6347 103.864 22.6347C103.572 22.5439 103.585 21.9777 103.585 21.9777C103.585 21.9777 104.191 22.1941 104.191 21.691C104.191 21.1879 103.721 21.3529 103.721 21.3529C103.721 21.3529 104.027 20.6217 103.452 20.6217H103.411C102.835 20.6217 103.141 21.3529 103.141 21.3529C103.141 21.3529 102.673 21.1886 102.673 21.691C102.673 22.1941 103.279 21.9777 103.279 21.9777C103.279 21.9777 103.292 22.5433 102.999 22.6347C102.999 22.6347 102.571 22.788 102.481 22.1362C102.365 22.8364 101.919 22.5922 101.919 22.5922C101.597 22.4434 101.574 22.0943 101.574 22.0943C101.65 22.0943 102.177 22.2031 102.177 21.702C102.177 21.1783 101.598 21.3142 101.598 21.3142C101.863 21.054 101.742 20.6146 101.393 20.6146C101.15 20.6146 101.22 20.8936 101.22 20.8936L101.578 24.1073H105.284ZM102.919 28.9372L103.332 25.2397C103.332 25.2397 103.411 24.9189 103.131 24.9189C102.732 24.9189 102.59 25.4233 102.895 25.7248C102.895 25.7248 102.228 25.567 102.228 26.1693C102.228 26.7464 102.836 26.6208 102.924 26.6208C102.924 26.6208 102.895 27.0221 102.527 27.1935C102.527 27.1935 102.014 27.4756 101.882 26.6704C101.777 27.4202 101.286 27.2418 101.286 27.2418C100.949 27.1374 100.965 26.4868 100.965 26.4868C100.965 26.4868 101.662 26.7361 101.662 26.1577C101.662 25.5792 101.122 25.7667 101.122 25.7667C101.122 25.7667 101.475 24.926 100.813 24.926H100.766C100.104 24.926 100.455 25.7667 100.455 25.7667C100.455 25.7667 99.9174 25.5786 99.9174 26.1577C99.9174 26.7355 100.615 26.4868 100.615 26.4868C100.615 26.4868 100.631 27.1374 100.294 27.2418C100.294 27.2418 99.8015 27.4202 99.6978 26.6704C99.5651 27.4756 99.0536 27.1935 99.0536 27.1935C98.6839 27.0221 98.6555 26.6208 98.6555 26.6208C98.7412 26.6208 99.3506 26.7464 99.3506 26.1693C99.3506 25.5663 98.6852 25.7248 98.6852 25.7248C98.9899 25.4233 98.8488 24.9189 98.4488 24.9189C98.1705 24.9189 98.2484 25.2397 98.2484 25.2397L98.6613 28.9372H102.919ZM99.9548 34.2097H101.68V35.7344H99.9548V34.2097ZM100.951 33.9404V32.8196C100.951 32.8196 101.106 32.609 102.323 32.3513V33.84C102.323 33.84 102.125 34.1298 101.961 34.1537V33.9424L100.951 33.9404ZM100.658 33.9404V32.8099C100.658 32.8099 100.505 32.5993 99.2862 32.3416V33.8677C99.2862 33.8677 99.4839 34.1343 99.6482 34.1588V33.9398L100.658 33.9404ZM101.96 35.7299V36.0179H100.951V36.5551L102.322 37.933V35.9238C102.282 35.8648 102.228 35.8164 102.165 35.7827C102.102 35.749 102.032 35.7309 101.96 35.7299ZM99.2868 35.8646C99.2868 35.8646 99.5432 35.717 99.6733 35.717V36.0043H100.658V36.5422L99.2752 37.8673L99.2868 35.8646ZM99.509 38.0206L100.799 36.8257L102.003 38.0141L99.509 38.0206ZM99.3216 38.3143H102.276V40.1798H99.3216V38.3143ZM94.9136 39.3926L99.0407 40.1431V38.2898L94.9136 37.7513V39.3926ZM106.674 39.4049L102.546 40.156V38.304L106.674 37.7642V39.4049ZM99.2868 40.4716L99.3338 40.9876L100.155 40.46L99.2868 40.4716ZM99.3442 41.3161L100.647 40.46H102.312L102.3 40.7183L99.4279 42.4537L99.3442 41.3161ZM99.4511 42.7578L102.276 41.0591L102.195 42.2547L99.5329 43.8483L99.4511 42.7578ZM99.5458 44.1414L102.171 42.5941L102.088 43.8947L99.6385 45.3492L99.5458 44.1414ZM99.6508 45.6423L102.066 44.2239L101.983 45.4665L100.331 46.4404H99.7094L99.6508 45.6423ZM100.87 46.4404L101.96 45.7937L101.914 46.4275L100.87 46.4404ZM99.3693 47.1432L99.6392 46.7206L101.995 46.7103L102.253 47.1548L101.937 47.9864L99.7674 48L99.3693 47.1432ZM94.7918 17.3165H106.795V17.8757H94.7918V17.3165ZM101.084 7.84668V8.60422H101.809C101.809 8.60422 101.693 8.01609 101.084 7.84668ZM100.546 7.84925V8.60422H99.8241C99.8241 8.60422 99.9239 8.02253 100.546 7.84925ZM0.00193634 14.2001L0 36.8353H6.92798V29.8339L15.0741 29.8249L16.8223 24.1691L6.9312 24.1627L6.92798 19.9924H18.121L19.9085 14.2001H0.00193634ZM37.7615 36.1628L45.0869 24.1247L49.2373 36.8353H56.7605L49.7384 14.2084H42.7898L37.7596 22.6669L32.7306 14.2084H25.782L18.7626 36.8353H26.2825L30.4329 24.1247L37.7615 36.1628ZM55.9726 14.1943L62.9831 36.8353H73.1744L80.2093 14.1943H72.574L68.215 29.555L63.6588 14.1943H55.9726ZM90.2595 31.4127C90.2177 31.347 90.1854 31.2253 90.3007 31.1332C90.4148 31.043 90.5487 31.2015 90.5487 31.2015C91.4551 32.5098 92.6423 33.2074 92.9025 33.351C92.4574 32.6334 92.4671 31.6711 92.594 31.3612C92.7222 31.0475 92.9998 30.6578 92.7196 30.375C92.4909 30.1489 92.2274 30.308 92.1141 30.4349C91.9994 30.5592 91.7147 30.8916 91.4055 30.7306C91.0956 30.5708 91.1871 30.3183 91.2464 30.1805C91.3031 30.0433 91.5079 29.7012 91.2676 29.5279C91.0525 29.374 90.8901 29.5859 90.7993 29.756C90.7265 29.8925 90.617 30.1805 90.3188 30.1908C90.0231 30.2037 90.0334 29.9859 89.7816 29.8262C89.531 29.6671 89.243 29.8726 89.243 29.8726C88.7998 30.1818 89.292 30.5599 89.2797 30.9824C89.2694 31.3284 89.0079 31.2189 88.7187 31.3258C88.4101 31.4417 88.2027 31.6227 88.3174 31.9558C88.4108 32.2218 88.8675 32.1754 89.0858 32.0711C89.3487 31.9448 89.4781 32.0041 89.6224 32.2083C89.8144 32.484 89.6005 32.6534 89.4163 32.8724C89.2334 33.0914 89.12 33.3659 89.3493 33.5816C89.5844 33.8052 90.0122 33.6615 90.1848 33.5134C90.3568 33.3652 90.6299 33.2956 90.8831 33.5011C91.1343 33.7073 91.0654 34.0152 90.9623 34.2226C90.8592 34.4274 90.9752 34.7585 91.1478 34.8513C91.3172 34.9441 91.5852 34.9273 91.8326 34.5086C92.0786 34.0912 92.6378 33.9314 92.9998 33.8709C91.0634 32.8512 90.2988 31.4765 90.2595 31.4127ZM111.332 31.4127C111.375 31.347 111.407 31.2253 111.292 31.1332C111.177 31.043 111.044 31.2015 111.044 31.2015C110.137 32.5098 108.951 33.2074 108.689 33.351C109.135 32.6334 109.126 31.6711 108.998 31.3612C108.87 31.0475 108.591 30.6578 108.873 30.375C109.101 30.1489 109.365 30.308 109.477 30.4349C109.595 30.5592 109.877 30.8916 110.187 30.7306C110.498 30.5708 110.405 30.3183 110.346 30.1805C110.29 30.0433 110.084 29.7012 110.326 29.5279C110.54 29.374 110.703 29.5859 110.793 29.756C110.867 29.8925 110.976 30.1805 111.275 30.1908C111.569 30.2037 111.561 29.9859 111.811 29.8262C112.064 29.6671 112.349 29.8726 112.349 29.8726C112.793 30.1818 112.302 30.5599 112.314 30.9824C112.323 31.3284 112.586 31.2189 112.874 31.3258C113.183 31.4417 113.389 31.6227 113.275 31.9558C113.183 32.2218 112.725 32.1754 112.508 32.0711C112.246 31.9448 112.114 32.0041 111.97 32.2083C111.776 32.484 111.993 32.6534 112.177 32.8724C112.359 33.0914 112.473 33.3659 112.245 33.5816C112.008 33.8052 111.581 33.6615 111.409 33.5134C111.236 33.3652 110.964 33.2956 110.709 33.5011C110.46 33.7073 110.528 34.0152 110.63 34.2226C110.733 34.4274 110.618 34.7585 110.445 34.8513C110.275 34.9441 110.007 34.9273 109.76 34.5086C109.513 34.0912 108.954 33.9314 108.593 33.8709C110.527 32.8512 111.291 31.4765 111.332 31.4127Z" fill="white"/>
</g>
<defs>
<clipPath id="clip0_957_385">
<rect width="116" height="48" fill="white"/>
</clipPath>
</defs>
</svg>
