<svg width="96" height="48" viewBox="0 0 96 48" fill="none" xmlns="http://www.w3.org/2000/svg">
<g clip-path="url(#clip0_957_439)">
<path d="M95.5 0.000310057H47.7502V23.6382H71.2677V21.0005H71.984L71.983 23.6382H95.5V24.3597H71.983L71.984 26.9998H71.2677V24.3597H47.7502V47.9994H95.5V48H47.7498V0.000620115H24.2335V0L95.5 0.000310057Z" fill="white"/>
<path fill-rule="evenodd" clip-rule="evenodd" d="M23.517 5.99992L24.1138 6.00023L24.2335 5.99992V0.600271H47.153V23.6403H41.7818V23.7603H41.7812V24.2403H41.7818V24.3606H47.153V47.4007H24.2335V42.0004L23.6397 42.0001L23.517 42.0004V47.4007H0.596838V24.3606H5.96869V23.6403H0.596838V0.600271H23.517V5.99992ZM20.0414 20.0372L8.6867 23.6819L20.7188 21.0783L23.8751 24.0003H7.56273L19.9267 27.8481L23.5577 39.2461L20.9643 27.1679L23.8751 24.0003V40.3741L27.7087 27.9632L39.0638 24.3184L27.0308 26.9223L23.8751 24.0003H40.1874L27.8232 20.1522L24.1925 8.75385L26.7862 20.8318L23.8751 24.0003V7.62617L20.0414 20.0372ZM35.8927 26.5462C34.8941 31.3207 31.1418 35.0787 26.3812 36.0696L26.198 36.6631C31.4102 35.7056 35.5226 31.585 36.4858 26.3558L35.8927 26.5462ZM11.2616 26.3369C12.2166 31.5657 16.3195 35.6907 21.526 36.6581L21.3366 36.0628C16.5825 35.0599 12.8409 31.2961 11.8526 26.5205L11.2616 26.3369ZM26.4136 11.9381C31.1681 12.9411 34.9107 16.7056 35.8988 21.4826L36.4898 21.6668C35.5352 16.4359 31.4313 12.3106 26.2236 11.3431L26.4136 11.9381ZM21.5491 11.3385C16.3385 12.2973 12.2288 16.4167 11.2656 21.6439L11.8587 21.4532C12.8581 16.6805 16.6073 12.9241 21.3656 11.9319L21.5491 11.3385Z" fill="white"/>
<path d="M82.1413 31.1341C82.319 31.2322 82.6621 31.4886 82.9741 31.8193L89.1606 38.6663C89.1104 36.9987 88.9483 33.2056 88.899 32.0612C88.8657 31.8583 88.5881 31.8078 88.4555 31.7834C88.2445 31.7528 88.093 31.7366 88.0113 31.7279C87.7477 31.6994 87.6483 31.6887 87.5443 31.5598C87.4146 31.3986 87.4808 31.2587 87.5406 31.2011C87.6178 31.1285 87.7918 31.1315 88.3861 31.1521C88.6694 31.162 89.0223 31.1743 89.3811 31.171C89.7125 31.1689 90.0398 31.1578 90.303 31.1487C90.9092 31.128 91.0113 31.1276 91.072 31.1688C91.12 31.2011 91.152 31.2547 91.1608 31.3146C91.1692 31.368 91.1626 31.4511 91.0868 31.5452C90.9832 31.673 90.8847 31.6838 90.6207 31.7127C90.5092 31.7243 90.3705 31.7401 90.1908 31.7657C89.9358 31.8123 89.7294 31.9341 89.7312 31.9772C89.7333 32.0276 89.9426 39.0717 89.9388 39.6799L89.9594 40.9434L89.5193 41.0848C88.1654 39.7544 85.2003 36.4937 83.4291 34.5457L82.2539 33.2571C82.2556 34.4546 82.2636 39.1269 82.2999 39.959C82.3311 40.1094 82.6082 40.1598 82.74 40.1838C82.9437 40.2135 83.0895 40.2292 83.1863 40.2396C83.4499 40.2685 83.5486 40.2794 83.653 40.4076C83.7658 40.5485 83.7342 40.6918 83.6564 40.7657C83.5789 40.8393 83.4042 40.8365 82.8075 40.815C82.525 40.8051 82.1732 40.7927 81.8153 40.7955C81.5037 40.798 81.1882 40.8088 80.9347 40.8175C80.2876 40.8399 80.1856 40.8399 80.1253 40.7986C80.0778 40.7667 80.0453 40.7138 80.0356 40.6535C80.0276 40.6003 80.0339 40.5167 80.1096 40.4225C80.2136 40.2944 80.3126 40.2834 80.5766 40.2548C80.7025 40.2407 80.8391 40.2261 81.0062 40.2021C81.2176 40.1632 81.4544 40.0423 81.4671 39.9667C81.5491 39.4704 81.4997 32.9721 81.4988 32.9076C81.4803 32.425 81.4509 32.2824 81.4214 32.2001C81.2719 31.779 80.5928 31.7325 80.3005 31.7127C80.2209 31.7069 80.1842 31.7043 80.1568 31.6972L80.0655 31.26L82.1413 31.1341Z" fill="white"/>
<path fill-rule="evenodd" clip-rule="evenodd" d="M57.468 30.8991C58.9255 30.8991 60.2607 31.4334 61.2264 32.4038C62.1385 33.3216 62.6412 34.5537 62.6412 35.8737C62.6412 36.6819 62.5708 37.5778 61.7307 38.8499C61.6718 38.9417 60.2694 41.0541 57.2576 41.0541C55.7092 41.0541 54.3897 40.551 53.4422 39.599C52.5153 38.6667 51.9829 37.3378 51.9829 35.9533C51.983 34.6267 52.4592 33.3956 53.3237 32.4866C54.3113 31.4481 55.7452 30.8991 57.468 30.8991ZM57.2727 31.5121C56.265 31.5121 55.4331 31.8346 54.8006 32.4705C53.8725 33.4036 53.5418 34.8475 53.5418 35.8876C53.5418 36.9076 53.8961 38.4542 54.8946 39.4576C55.5158 40.0818 56.2851 40.3983 57.1821 40.3983C58.4808 40.3983 59.4655 39.9738 60.1086 39.1355C60.6922 38.3761 60.9879 37.2987 60.9879 35.9332C60.9879 34.459 60.5929 33.3152 59.8143 32.5322C58.9316 31.645 57.8425 31.5121 57.2727 31.5121Z" fill="white"/>
<path d="M71.169 30.6253C71.3013 30.6256 71.459 30.6977 71.459 31.0383L71.4571 33.4977C71.4428 33.6573 71.3384 33.7525 71.178 33.7525C70.9565 33.7525 70.9054 33.5787 70.7909 33.0763C70.5584 32.0603 70.2071 32.0609 68.8995 32.0609L67.7197 32.0643C67.7286 32.5997 67.7252 33.5503 67.721 34.5562C67.7134 36.7225 67.7029 39.3918 67.8002 39.8176C67.8379 39.9853 68.2186 40.1226 68.4119 40.1586C68.5803 40.1821 68.7186 40.1987 68.8091 40.2095C69.1498 40.2497 69.3204 40.2703 69.4236 40.4293C69.5288 40.5927 69.4636 40.7309 69.3751 40.7995C69.304 40.8544 69.1645 40.8542 68.4146 40.8274C68.0142 40.8137 67.5161 40.7964 66.9434 40.7927C66.2082 40.7927 65.7319 40.8167 65.4169 40.8324C65.0421 40.8509 64.8356 40.8608 64.639 40.82C64.5641 40.7902 64.5171 40.7335 64.499 40.6591C64.4775 40.5723 64.4998 40.4798 64.56 40.4055C64.6636 40.2773 64.7625 40.2664 65.027 40.2374C65.1491 40.2242 65.2855 40.2092 65.4564 40.1844C65.6867 40.1426 66.1651 39.9571 66.1883 39.8253C66.2397 39.4909 66.2562 34.9905 66.2642 32.8273L66.2676 32.0699L64.482 32.0758C63.9838 32.0811 63.6641 32.262 63.2636 32.7644C63.1744 32.8995 62.9168 33.2506 62.7306 33.4837C62.6241 33.6171 62.4451 33.7499 62.2927 33.6859C62.2472 33.6668 62.1429 33.6002 62.1665 33.391L62.7874 30.904C62.808 30.806 62.8873 30.6402 63.0524 30.6402C63.2376 30.6402 63.27 30.701 63.4055 30.9564L63.466 31.0687C63.5805 31.2558 63.6713 31.4035 64.4712 31.3862L70.521 31.4125C70.5488 31.4125 70.6032 31.3976 70.6129 31.367C70.8483 30.8917 70.9888 30.6254 71.169 30.6253Z" fill="white"/>
<path fill-rule="evenodd" clip-rule="evenodd" d="M75.1736 30.6625C75.27 30.7588 76.2062 33.2117 77.5227 36.6686C78.1523 38.3223 78.6968 39.7515 78.7642 39.9094C78.8716 40.0908 79.1784 40.1429 79.3431 40.171C79.7655 40.24 79.8451 40.2687 79.9529 40.3903C80.0291 40.4762 80.0362 40.5576 80.0291 40.611C80.0173 40.6981 79.9602 40.7639 79.9143 40.7936C79.7817 40.849 79.5534 40.8419 79.0902 40.8234C78.851 40.813 78.4888 40.7977 78.1241 40.8005C77.8066 40.8034 77.5097 40.8131 77.2482 40.8219C76.6157 40.8429 76.4351 40.8464 76.35 40.7881C76.2851 40.7368 76.2055 40.5962 76.2695 40.4358C76.3335 40.283 76.4489 40.2703 76.7019 40.2417C76.8177 40.229 76.947 40.2136 77.1087 40.1893C77.1955 40.1719 77.399 40.1321 77.4428 40.0585C77.4283 39.9488 77.0813 38.9836 76.5702 37.5988L76.1945 36.5843C74.6549 36.5011 73.6077 36.543 73.2856 36.5607L72.8442 37.7517L72.0598 39.8768C72.0342 39.9531 72.0331 40.0132 72.058 40.0554C72.1069 40.1392 72.2565 40.1689 72.3445 40.1862C72.4923 40.2086 72.6048 40.2189 72.6949 40.2272C72.9636 40.252 73.1076 40.2654 73.2057 40.5044C73.2335 40.5779 73.2283 40.6502 73.1921 40.7081C73.1563 40.7647 73.0953 40.7999 73.0191 40.807C72.6848 40.8392 72.3664 40.8282 71.9985 40.8153C71.7504 40.8071 71.469 40.7972 71.1431 40.8005C70.8227 40.8038 70.5332 40.8129 70.3218 40.82C69.8185 40.8349 69.7242 40.8349 69.6669 40.7989C69.6054 40.7614 69.5382 40.6864 69.5306 40.5893C69.5264 40.5326 69.5412 40.4488 69.6367 40.3698C69.7689 40.2599 69.8721 40.2507 70.121 40.2281C70.2477 40.2165 70.4051 40.2018 70.6194 40.1729C70.7887 40.1494 71.1589 39.987 71.2554 39.7925C71.335 39.632 72.2021 37.3178 72.966 35.2755C73.6344 33.4904 74.466 31.2686 74.6816 30.7344L75.1736 30.6625ZM73.5604 35.8206C73.913 35.843 74.889 35.8935 75.9219 35.851L74.7347 32.6639L73.5604 35.8206Z" fill="white"/>
<path d="M54.1118 7.09474C54.2887 7.19201 54.6306 7.44735 54.9443 7.77996L61.1311 14.6267C61.0809 12.9469 60.9178 9.14675 60.8686 8.00041C60.8361 7.81869 60.5593 7.76827 60.4275 7.74431C60.2204 7.71404 60.0708 7.69778 59.9815 7.68788C59.7174 7.65926 59.6184 7.64859 59.5148 7.52044C59.4011 7.37952 59.4326 7.23593 59.5105 7.16202C59.588 7.08841 59.7634 7.09124 60.3606 7.11241C60.6427 7.12231 60.9942 7.13471 61.3513 7.13225C61.6823 7.12925 62.0096 7.11841 62.272 7.10931C62.8695 7.08862 62.981 7.08803 63.0425 7.12977C63.0901 7.16202 63.122 7.21504 63.1313 7.27488C63.1389 7.3283 63.1331 7.41129 63.0573 7.50556C62.9533 7.63367 62.8544 7.64439 62.59 7.67299C62.475 7.6854 62.3376 7.7007 62.1603 7.72601C61.906 7.77266 61.6993 7.89466 61.7014 7.93716C61.7035 7.98102 61.9127 15.0319 61.909 15.6402L61.9296 16.904L61.9191 16.9329C61.8512 17.0091 61.8408 17.0145 61.8303 17.0153L61.4839 17.046C60.1447 15.7243 57.1703 12.4542 55.394 10.5004L54.2241 9.21708C54.2258 10.4148 54.2341 15.0863 54.2703 15.9193C54.3011 16.0702 54.5689 16.1186 54.7117 16.1447C54.8978 16.1715 55.0364 16.1869 55.1371 16.198C55.42 16.2291 55.5186 16.2398 55.6235 16.3679C55.7359 16.5088 55.7044 16.6524 55.6269 16.7261C55.5498 16.7995 55.3749 16.7969 54.7814 16.7763C54.5326 16.7672 54.1569 16.7531 53.7855 16.7564C53.4553 16.7584 53.1287 16.77 52.8663 16.7788C52.2676 16.7998 52.1565 16.8002 52.0958 16.7592C52.0483 16.7275 52.0157 16.6747 52.0061 16.6138C51.9976 16.5601 52.0044 16.4764 52.0798 16.3822C52.1838 16.2549 52.2812 16.2443 52.5465 16.2154C52.6648 16.2026 52.8029 16.1872 52.9764 16.1621C53.1839 16.124 53.4249 16.0013 53.4369 15.9273C53.5052 15.5151 53.4833 10.6909 53.469 8.86857C53.4501 8.38536 53.421 8.24285 53.3919 8.16102C53.242 7.73851 52.5612 7.69234 52.271 7.67299C52.2003 7.66804 52.1574 7.66504 52.1279 7.65811L52.0357 7.22031L54.1118 7.09474Z" fill="white"/>
<path fill-rule="evenodd" clip-rule="evenodd" d="M85.4833 6.8594C86.9408 6.85941 88.2748 7.39405 89.2404 8.36473C90.153 9.28167 90.6556 10.5141 90.6556 11.8346C90.6556 12.6427 90.5851 13.5386 89.7454 14.8102C89.6867 14.9011 88.2847 17.0147 85.2717 17.0147C83.7237 17.0147 82.4044 16.5112 81.4569 15.5587C80.5296 14.6269 79.9977 13.2988 79.9976 11.914C79.9976 10.5872 80.474 9.35589 81.3381 8.44721C82.3265 7.40844 83.7597 6.8594 85.4833 6.8594ZM85.2865 7.47301C84.2792 7.47302 83.4478 7.79561 82.8153 8.43139C81.8872 9.36401 81.5565 10.8078 81.5565 11.8479C81.5565 12.8679 81.9108 14.4145 82.9093 15.4179C83.5305 16.0425 84.2994 16.3592 85.1968 16.3593C86.4955 16.3593 87.4802 15.9342 88.1233 15.0958C88.7065 14.3364 89.0023 13.2591 89.0023 11.8935C89.0023 10.4198 88.6077 9.27548 87.829 8.49278C86.9463 7.60561 85.8576 7.47301 85.2865 7.47301Z" fill="white"/>
<path d="M79.7771 6.58593C79.9093 6.58682 80.0667 6.65869 80.0667 6.99924L80.0649 9.45861C80.0505 9.61781 79.9462 9.71316 79.7854 9.71317C79.5635 9.71317 79.5126 9.53922 79.3989 9.03694C79.1665 8.02077 78.8147 8.02068 77.5054 8.02119L76.3275 8.02522C76.3359 8.55967 76.3325 9.51031 76.3287 10.5165C76.3207 12.677 76.3108 15.3518 76.4077 15.7779C76.446 15.9466 76.8262 16.0831 77.0199 16.1186L77.382 16.1655C77.7571 16.2101 77.9281 16.2302 78.0313 16.3896C78.1193 16.5261 78.1009 16.6681 77.9826 16.7598C77.9127 16.8144 77.7737 16.8145 77.0245 16.7881C76.6241 16.7743 76.1254 16.7566 75.5514 16.7533C74.8397 16.7533 74.3765 16.7759 74.0379 16.7924C73.6496 16.8114 73.4431 16.8219 73.2464 16.7806C73.1715 16.7509 73.1241 16.694 73.1064 16.6188C73.0853 16.5325 73.1075 16.4402 73.1678 16.3655C73.2714 16.2373 73.3699 16.2266 73.6335 16.198C73.7544 16.1853 73.8905 16.1698 74.0644 16.1447C74.2944 16.1034 74.7728 15.9185 74.7963 15.7853C74.8465 15.4549 74.8638 10.9913 74.8722 8.84625L74.875 8.03018L73.0897 8.03638C72.5917 8.04103 72.2721 8.22215 71.8717 8.72471C71.7795 8.86359 71.5211 9.21499 71.3384 9.44435C71.2314 9.57743 71.0529 9.7103 70.9001 9.6462C70.8432 9.62224 70.7517 9.55248 70.7739 9.35164L71.3951 6.86405C71.4158 6.76648 71.4946 6.60116 71.6601 6.60112C71.845 6.60112 71.8771 6.66187 72.0136 6.91769L72.0728 7.029C72.1882 7.2162 72.2784 7.36428 73.0789 7.34743L79.1284 7.37286C79.1562 7.37285 79.2105 7.35762 79.2207 7.32759C79.4556 6.85168 79.5964 6.58593 79.7771 6.58593Z" fill="white"/>
<path fill-rule="evenodd" clip-rule="evenodd" d="M67.7543 6.62345C67.8508 6.72087 68.784 9.16505 70.0954 12.6088C70.7291 14.2731 71.2766 15.7118 71.3449 15.8697C71.4518 16.0507 71.7585 16.1032 71.9232 16.1314C72.3506 16.2011 72.4249 16.2277 72.5336 16.3506C72.6093 16.436 72.6169 16.5175 72.6098 16.5707C72.5984 16.6574 72.5433 16.722 72.4954 16.754C72.3627 16.8089 72.1351 16.8024 71.6727 16.7834C71.4167 16.7727 71.0664 16.7576 70.7051 16.7614C70.3918 16.7639 70.1035 16.7732 69.8125 16.7831C69.1957 16.8033 69.0142 16.8064 68.9304 16.749C68.8487 16.6845 68.7928 16.5391 68.8505 16.3965C68.9136 16.244 69.0289 16.2307 69.2811 16.2021C69.3906 16.1901 69.5217 16.1746 69.691 16.149C69.7773 16.1321 69.9789 16.0921 70.0232 16.0191C70.0072 15.9042 69.6522 14.9204 69.1506 13.5594L68.7746 12.5446C67.2304 12.4611 66.1872 12.5028 65.8663 12.5201L65.4551 13.6298L64.6402 15.8365C64.6146 15.9133 64.6143 15.9734 64.6387 16.0151C64.6875 16.0999 64.8371 16.1292 64.9255 16.1466C65.0758 16.1694 65.1891 16.1798 65.283 16.1881C65.5441 16.2126 65.6875 16.2261 65.7861 16.4647C65.8135 16.5382 65.8085 16.6105 65.7731 16.6681C65.7378 16.7246 65.6764 16.7601 65.5998 16.7676C65.2709 16.799 64.9549 16.7887 64.5893 16.7763C64.3594 16.7684 64.0574 16.7576 63.7235 16.7614C63.406 16.7647 63.1285 16.7731 62.9062 16.78C62.4 16.7954 62.3055 16.7953 62.247 16.7592C62.186 16.7217 62.1177 16.6469 62.111 16.5499C62.1068 16.4932 62.1219 16.4092 62.2171 16.3298C62.3497 16.2202 62.4518 16.2111 62.7007 16.1884C62.8228 16.1772 62.9816 16.1629 63.2001 16.1335C63.369 16.1104 63.7392 15.9483 63.8361 15.7528C63.9145 15.5963 64.7243 13.433 65.5076 11.341L65.5403 11.2517C66.2477 9.36283 67.0492 7.22224 67.2623 6.69538L67.7543 6.62345ZM66.1408 11.7809C66.4945 11.803 67.4746 11.8534 68.5026 11.8107L67.3154 8.62487L66.1408 11.7809Z" fill="white"/>
<path d="M23.517 0.000620115H0V0H23.517V0.000620115Z" fill="white"/>
</g>
<defs>
<clipPath id="clip0_957_439">
<rect width="96" height="48" fill="white"/>
</clipPath>
</defs>
</svg>
