<svg width="156" height="48" viewBox="0 0 156 48" fill="none" xmlns="http://www.w3.org/2000/svg">
<g clip-path="url(#clip0_957_404)">
<path fill-rule="evenodd" clip-rule="evenodd" d="M152.161 23.1167V23.0544C153.74 22.4715 154.886 20.6903 154.886 18.6332C154.886 16.5138 153.957 13.2271 148.601 13.2271H130.297V32.3456L122.01 13.2271H112.998L105.891 29.4625L98.8516 13.2271H89.8415L82.4813 30.0391C82.607 29.5186 82.6793 28.956 82.6793 28.3373C82.6793 24.4678 80.2028 22.8097 76.0827 22.1037C73.9143 21.7344 68.248 20.9038 66.3906 20.5983C65.275 20.4129 64.7486 19.9828 64.7486 19.2472C64.7486 17.8026 66.1125 17.0966 68.589 17.0966C71.9642 17.0966 73.1726 18.1407 73.3879 19.6461H81.749C81.2855 14.4551 76.4536 12.5507 68.435 12.5507C58.7413 12.5507 56.9453 16.6353 56.9453 19.523C56.9453 22.7785 58.7099 25.0507 63.2621 25.7255L70.6317 26.8319C73.2024 27.2309 74.1311 27.6298 74.1311 28.7971C74.1311 30.6703 72.1198 31.1004 70.2609 31.1004C66.4205 31.1004 65.4918 30.0563 65.3064 28.3981H56.5744C57.0065 34.5102 62.4261 35.8317 69.9199 35.8317C72.3476 35.8317 79.0463 35.7865 81.6343 31.9715L80.2405 35.1554H88.1381L89.4706 31.5913H99.1313L100.462 35.1554H111.295L112.628 31.5913H122.288L123.621 35.1554H147.98C154.762 35.1554 156 31.2235 156 28.6132C156 25.512 154.484 23.6372 152.161 23.1167ZM91.2023 27.047L94.2664 18.7563H94.3292L97.3965 27.047H91.2023ZM114.359 27.047L117.425 18.7563H117.488L120.552 27.047H114.359ZM137.667 17.9553H145.005C146.586 17.9553 147.268 18.8171 147.268 19.7989C147.268 20.8118 146.586 21.6736 145.005 21.6736H137.667V17.9553ZM145.595 30.4256H137.667V25.9733H145.595C147.144 25.9733 148.195 26.7104 148.195 28.1519C148.195 29.5965 147.142 30.4256 145.595 30.4256Z" fill="white"/>
<path fill-rule="evenodd" clip-rule="evenodd" d="M37.0175 7.19077C35.3487 5.52159 33.3621 4.19791 31.173 3.2966C28.984 2.3953 26.6362 1.93435 24.266 1.94051C21.896 1.93476 19.5485 2.39606 17.3597 3.29762C15.171 4.19919 13.1847 5.52305 11.5161 7.19233C9.83546 8.85446 8.50334 10.8302 7.59662 13.0056C6.68989 15.181 6.22652 17.5129 6.23323 19.8668L6.23795 28.4895C6.31674 33.12 8.20976 37.5383 11.5161 40.8086C13.1847 42.4778 15.171 43.8016 17.3598 44.7032C19.5485 45.6048 21.896 46.0661 24.266 46.0604C29.0838 46.0604 33.6109 44.195 37.0175 40.8086C40.3322 37.5293 42.2255 33.0964 42.2941 28.4536L42.2989 19.8668C42.2989 15.0794 40.4227 10.5772 37.0175 7.19077ZM36.6734 40.444C35.0497 42.0683 33.1167 43.3564 30.9867 44.2336C28.8568 45.1109 26.5723 45.5597 24.266 45.554C21.9594 45.5597 19.6745 45.1108 17.5443 44.2333C15.414 43.3558 13.4809 42.0672 11.8571 40.4424C8.64338 37.2636 6.8019 32.97 6.72192 28.4692C6.79263 27.21 7.00162 25.9789 7.33789 24.7898C8.65977 28.1648 10.9784 31.0653 13.9902 33.1116C17.002 35.1579 20.5666 36.2546 24.2173 36.2581C31.7551 36.2581 38.4663 31.6655 41.1329 24.7602C41.4865 25.929 41.7143 27.1383 41.8102 28.3695C41.7563 32.9057 39.9122 37.2404 36.6734 40.444ZM7.60817 24.02C8.51818 21.3054 10.1039 18.8623 12.2185 16.9168C15.4901 13.8966 19.7893 12.2322 24.3242 12.2322C28.7538 12.2322 33.0043 13.92 36.2979 16.9884C38.3864 18.9259 39.9733 21.3341 40.9239 24.009C38.4868 31.0452 31.7944 35.7672 24.2519 35.7672C16.7581 35.7672 10.0799 31.0499 7.60817 24.02ZM41.8149 25.4443C40.9579 22.0872 39.1447 19.0457 36.5917 16.683C33.2102 13.535 28.8402 11.799 24.2896 11.799C19.6306 11.799 15.2135 13.5085 11.8524 16.6113C9.32202 18.9401 7.53697 21.9547 6.71878 25.2807V19.8824C6.71878 15.2228 8.54312 10.8437 11.8571 7.54764C13.4812 5.92329 15.4144 4.63511 17.5446 3.75789C19.6748 2.88068 21.9595 2.43191 24.266 2.43764C28.9534 2.43764 33.3594 4.25318 36.675 7.54764C38.31 9.1655 39.6059 11.0884 40.4878 13.2055C41.3697 15.3225 41.8202 17.5918 41.8133 19.8824L41.8149 25.4443Z" fill="white"/>
<path fill-rule="evenodd" clip-rule="evenodd" d="M20.2007 5.68022C21.1467 5.44179 22.487 5.32958 22.487 5.32958L24.2627 8.94508L26.0414 5.32958C26.0414 5.32958 27.2561 5.43867 28.3277 5.68022L29.9525 10.4022L30.3171 6.21787C31.516 6.55137 32.6034 7.01422 33.9202 7.71394C35.1034 8.34042 35.303 9.05261 35.2118 9.78661C35.2071 9.79752 35.1097 10.5284 34.2266 10.2152C34.2077 10.2152 35.7587 11.0209 35.4161 12.5294C35.2904 13.0702 34.7451 13.346 33.9218 12.8878C33.1141 12.414 32.271 12.0024 31.3997 11.6567C29.6995 10.999 28.455 10.7871 28.455 10.7871L28.1125 9.78505C26.9952 9.55753 25.7366 9.48116 25.7366 9.48116L25.3312 10.3695C24.6201 10.3456 23.9084 10.3456 23.1973 10.3695L22.7903 9.48116C21.6998 9.53727 20.416 9.78505 20.416 9.78505L20.0734 10.7871C19.5078 10.9024 18.9484 11.0365 18.2774 11.2359L18.378 10.9274C17.2827 11.7938 16.3383 12.1834 16.3383 12.1912C15.6234 12.5372 13.6702 13.5174 13.1988 12.5684C13.0495 12.3486 13.0652 11.8967 13.0652 11.8967C13.6419 11.5196 14.4763 11.0957 15.0703 10.7668C15.0703 10.7668 14.7717 11.9606 15.9911 11.3185C16.4232 11.1097 16.871 10.8042 17.0753 10.3523C17.3582 9.56844 16.4955 9.72272 16.1734 9.81778C15.6218 9.9783 13.5853 10.664 13.5791 9.30039C13.5728 8.33106 14.8943 7.3368 16.3101 6.75864C18.4314 5.89216 19.1621 6.68072 19.1039 7.33525C18.246 7.57368 18.0637 7.64069 17.3346 7.88069C17.3503 7.63758 17.168 7.27447 16.2708 7.63913C15.3955 8.06458 15.1708 8.40275 15.2965 8.76898C15.4568 9.26143 16.8255 8.73781 17.168 8.66456C19.0866 8.25626 18.8368 9.54194 18.8337 9.57623C18.8337 9.57623 20.1897 5.68022 20.2007 5.68022ZM20.735 8.82819C21.1074 8.75027 21.7784 8.65054 22.3849 8.59443C22.3802 8.60223 21.4704 6.61371 21.4704 6.61371L20.7334 8.82819H20.735ZM31.5804 10.5471C32.0833 10.7372 32.9381 11.1549 33.3514 11.3871C33.3514 11.3871 33.7803 11.7034 33.9909 11.4292C34.1559 11.1066 34.0349 10.7902 33.3199 10.4146C32.8595 10.1482 31.9874 9.7757 31.6606 9.6448L31.5804 10.5471ZM31.7564 8.56794C31.7564 8.56794 32.4918 8.87027 32.9868 9.10091C33.1722 9.18663 33.2822 9.27857 33.5038 9.2926C33.6766 9.27078 33.7426 9.16793 33.7615 9.08221C33.818 8.59911 33.2649 8.38093 33.0764 8.28743C32.6702 8.08002 32.2544 7.89176 31.8303 7.72329L31.7564 8.56794ZM26.1436 8.59599C26.7281 8.64898 27.0927 8.6895 27.7935 8.82975C27.8013 8.82975 27.0581 6.61371 27.0581 6.61371L26.1436 8.59599ZM15.449 23.6268C16.0288 23.8901 16.5018 24.0787 17.0125 24.007C18.1784 23.8418 18.5241 23.3852 19.5895 23.6954C20.0766 23.8356 20.4584 24.2314 20.4584 24.2314C20.4584 24.2314 20.1819 24.1348 19.8817 24.1177C18.7457 24.0507 17.8343 24.9171 16.7202 24.6335C15.7161 24.3779 15.449 23.6268 15.449 23.6268Z" fill="white"/>
<path fill-rule="evenodd" clip-rule="evenodd" d="M29.7318 18.6931C29.6265 19.3912 29.3754 20.0758 29.0219 20.6555C30.9293 22.9727 30.0635 23.7442 30.0745 25.0891C29.7414 24.6028 29.1457 24.1788 28.6743 24.0261L28.6634 24.0368C30.5458 25.7634 29.6849 28.0528 29.4743 29.552C29.1852 29.1717 28.9257 28.1623 28.2031 27.5764C29.5275 30.7022 27.7991 31.458 27.0668 32.6423C26.9347 31.9535 26.4855 30.7785 26.0142 30.1926C26.803 33.4481 25.0146 33.4807 23.4589 34.7165C23.5469 33.6769 23.2907 31.0511 23.0503 30.5197C22.7659 31.4205 22.829 31.9786 22.5619 33.5183C21.6599 32.1999 20.6227 31.3364 20.6698 30.3391C20.6731 29.7173 21.3231 28.5433 21.3281 28.5315C21.3155 28.5377 20.6806 28.8535 20.3227 29.5739C20.263 28.2494 19.8419 27.3596 20.4798 26.7736C19.9502 26.8297 19.2117 26.6411 18.9304 26.197C18.6036 25.7279 18.4734 25.0625 18.5331 24.8552C20.4673 25.7668 21.3048 24.3032 21.7062 23.8562L19.9441 23.3357C19.1078 21.8569 17.3971 23.1218 17.3859 23.1301C17.3859 23.1301 17.1752 21.9612 17.4391 21.2927C17.8995 19.8683 19.4711 19.8869 20.142 20.1394C20.3824 20.2313 20.5586 20.3716 20.5743 20.3825C20.7896 19.4055 21.1398 18.8972 21.5216 18.8972L27.0323 18.8957C27.1398 18.9043 27.2431 18.9412 27.3317 19.0022C27.4203 19.0632 27.4913 19.1465 27.537 19.2434C28.1592 18.9224 29.0122 18.7772 29.7318 18.6931ZM22.2173 19.5427C21.793 19.5427 21.3716 19.6768 21.3685 20.3874L21.9278 20.8547C21.9278 20.8547 22.6179 20.601 23.2763 21.0529L23.1881 21.4333C23.1881 21.4333 22.8992 21.2369 22.7514 21.3459C22.3822 22.2903 21.7611 22.4258 21.2567 22.2419C20.6975 22.0112 20.6125 21.3629 20.5261 21.0139C19.5628 20.4607 18.0594 20.3688 17.9447 22.0549C18.9739 21.5922 20.0237 22.1564 20.3065 22.7268L22.9809 23.4934C22.0695 24.1697 20.8434 26.3095 19.3381 25.6145C20.3829 26.7364 21.5504 25.3342 21.9214 25.9211C22.3001 26.5476 20.5499 26.7068 20.8343 28.2995C21.0919 28.0377 21.6167 27.4844 21.9765 27.8161C22.1838 28.0062 22.0849 28.2741 22.0174 28.3537C21.2584 29.9495 20.9286 30.6836 22.17 31.9475C22.4324 29.9996 22.5425 29.473 23.0626 29.4543C23.8183 29.4518 24.0651 32.7269 24.1044 33.5388C25.6096 32.5695 25.8407 32.3963 25.3584 30.0075C25.2594 29.5822 25.3251 29.3358 25.6188 29.2204C25.9362 29.1051 26.2068 29.3155 26.3357 29.5212C26.6892 30.0666 27.0535 30.7025 27.2593 31.3508C27.6443 30.7196 28.6532 30.2783 27.5532 27.6384C27.3726 27.3128 27.4056 27.0338 27.6507 26.8811C28.2007 26.5149 28.9393 27.4238 29.2001 27.8586C29.1482 26.9282 29.6054 25.7638 28.1347 24.2849C27.899 23.9997 27.8989 23.7877 28.0953 23.593C28.4127 23.2657 29.1684 23.5541 29.5802 23.7956C29.7027 23.2923 29.6465 22.583 28.5497 21.4157C28.1992 21.7876 27.822 22.1342 27.4213 22.4524C27.558 23.8751 27.6176 26.0597 26.4125 27.1989C26.4127 27.1825 26.4236 26.263 25.9004 25.2653C25.8485 26.5307 25.2718 27.8305 24.1137 28.6159C24.1137 28.6159 24.3101 27.7369 24.1797 26.1833C23.9911 26.7599 23.5304 27.3455 22.8312 27.573L22.5328 25.9709C22.5418 25.9646 23.1113 25.5625 23.1128 25.5471C23.1113 25.5626 23.2992 26.447 23.3014 26.4572C23.914 25.8822 23.4271 24.9614 24.0099 24.7541C24.3178 24.6559 24.4831 24.8881 24.5805 25.0798C24.8523 25.6361 24.8586 26.1116 24.868 26.7131C25.231 25.8669 25.2451 25.033 25.1147 24.0808C25.0738 23.7551 25.2295 23.5836 25.4243 23.529C25.6332 23.4839 25.7981 23.5993 25.9364 23.7629C26.2978 24.2148 26.5398 24.8069 26.6828 25.3352C26.9216 24.531 26.95 23.3902 26.6641 22.5954C26.6298 22.441 26.5798 22.2761 26.5789 22.2732C27.4164 21.5672 28.185 20.7428 28.6265 19.7019C27.4605 20.0429 25.9324 20.9544 25.9162 20.9641L25.5986 20.6291L26.8147 19.6892C26.8917 19.63 26.9248 19.543 26.7049 19.5383L22.2173 19.5427ZM21.4871 21.612C21.996 21.0713 21.3142 20.727 21.0785 20.9108C20.7691 21.1534 20.9225 21.6179 21.1696 21.8098L21.2213 21.8444C21.8812 22.2761 22.3528 21.5917 22.4157 21.2629L22.2537 21.2756C22.2379 21.4362 21.9584 21.8831 21.4871 21.612Z" fill="white"/>
<path d="M24.2698 13.8967C24.4367 13.8981 24.5991 13.9505 24.7346 14.0471C24.8701 14.1437 24.9721 14.2798 25.0265 14.4362C25.081 14.5927 25.0854 14.7621 25.0388 14.9211C24.9923 15.08 24.8971 15.2208 24.7666 15.3239L24.7651 15.3347C24.8688 15.2626 24.9883 15.2157 25.1137 15.198C25.2391 15.1802 25.3669 15.1922 25.4869 15.2326C25.6069 15.2731 25.7159 15.341 25.8044 15.4309C25.8929 15.5207 25.959 15.6299 25.9969 15.7497C26.0349 15.8696 26.0438 15.9969 26.023 16.1208C26.0022 16.2448 25.952 16.3624 25.8768 16.4636C25.8017 16.5648 25.7034 16.6468 25.5903 16.7033C25.4771 16.7598 25.3521 16.7891 25.2254 16.7888C24.861 16.7903 24.6345 16.4727 24.7287 16.6174C25.9936 18.5405 27.565 17.0568 27.565 17.0568C27.4451 17.0876 27.3196 17.091 27.1982 17.0666C27.0769 17.0422 26.9628 16.9908 26.8644 16.9162C26.7661 16.8416 26.6861 16.7457 26.6306 16.6359C26.575 16.5262 26.545 16.4052 26.5434 16.2824C26.5452 16.1258 26.5934 15.9731 26.6813 15.843C26.7692 15.7129 26.8934 15.6112 27.0387 15.55C27.1841 15.4888 27.3441 15.4711 27.4995 15.4987C27.655 15.5264 27.7993 15.5982 27.9141 15.7058C27.9205 15.7075 28.0687 15.7473 28.0318 15.6589C27.9934 15.5689 27.1606 14.0319 29.4915 14.0319L27.3277 18.6794C27.3277 18.6794 27.1814 18.5608 26.9944 18.5608H21.5324C21.3488 18.5608 21.2046 18.6721 21.1996 18.676L19.0358 14.029C21.3692 14.0306 20.5333 15.5656 20.4955 15.656C20.4571 15.743 20.6073 15.7044 20.6132 15.7028C20.7149 15.6063 20.8404 15.5377 20.9771 15.5041C21.1137 15.4705 21.2567 15.4731 21.3921 15.5114C21.5274 15.5497 21.6504 15.6224 21.7485 15.7224C21.8467 15.8224 21.9169 15.9465 21.9519 16.0817C21.9868 16.2169 21.9855 16.3589 21.9479 16.4934C21.9104 16.6279 21.8378 16.7502 21.7377 16.8483C21.6376 16.9465 21.5134 17.0172 21.3773 17.0529C21.2413 17.0887 21.0982 17.0886 20.9623 17.0525C20.9791 17.0682 22.5421 18.5272 23.7986 16.6145C23.8945 16.4695 23.6665 16.7874 23.3004 16.7858C22.8573 16.7843 22.496 16.429 22.4959 15.988C22.4948 15.8417 22.5342 15.6979 22.6101 15.5725C22.6861 15.447 22.7959 15.3447 22.9267 15.2771C23.0575 15.2094 23.2045 15.1788 23.3516 15.1887C23.4988 15.1986 23.6404 15.2486 23.7607 15.3332V15.321C23.6299 15.2181 23.5343 15.0771 23.4875 14.9182C23.4408 14.7593 23.4453 14.5898 23.4998 14.4333C23.5543 14.2768 23.6566 14.1411 23.7922 14.0446C23.928 13.9482 24.0906 13.8956 24.2575 13.8947L24.2698 13.8967Z" fill="white"/>
<path fill-rule="evenodd" clip-rule="evenodd" d="M22.8055 22.8929C23.5975 22.737 23.4592 23.443 24.3643 23.6175C23.6069 23.8996 23.2628 23.0144 22.8055 22.8913M27.6437 20.5194C27.3452 20.9947 26.8895 21.403 26.3316 21.5308C26.583 21.121 27.0655 20.5771 27.6437 20.5194ZM11.5012 33.6334C11.3284 33.4853 11.2074 33.3903 11.0283 33.1814L11.0235 32.4365C11.4918 32.9165 11.9899 33.3466 12.51 33.73L12.5163 34.4531C12.334 34.3191 12.1549 34.1664 11.9758 34.0245V38.4691C11.8281 38.3507 11.6458 38.2042 11.5012 38.0811V33.6334ZM12.884 34.0121C13.4764 34.4531 13.7797 34.6354 14.2212 34.8879L14.2259 35.597C13.9321 35.4271 13.6948 35.3133 13.3617 35.0671L13.3727 36.4354C13.687 36.6411 13.9415 36.7938 14.16 36.9232L14.1647 37.5247C13.8975 37.3689 13.6775 37.2442 13.3758 37.0354V38.7917C13.6713 38.9865 13.8881 39.1205 14.2967 39.3574L14.3014 40.1117C13.818 39.8193 13.3452 39.51 12.884 39.1844V34.0121ZM16.3567 40.9189C14.9362 41.6841 14.1207 38.5065 14.8183 36.077C14.9503 35.6188 15.3699 35.0266 16.2891 36.0816L16.2938 36.733C15.5632 35.6952 15.2049 36.0037 15.1735 37.6525C15.1216 40.5854 15.8036 40.5418 16.3583 40.1724V40.9205M16.8045 36.1923C17.001 36.2811 17.0842 36.3201 17.3749 36.4214V38.6888C17.6421 38.7823 17.9155 38.8649 18.1968 38.9242L18.1952 36.6988C18.4372 36.7923 18.5503 36.8141 18.7404 36.8655L18.742 42.0488C18.5534 41.9989 18.3869 41.9459 18.1999 41.8898L18.2078 39.5569C17.9296 39.4727 17.6483 39.3854 17.3749 39.2904V41.5937C17.1809 41.523 16.9906 41.4429 16.8045 41.3537V36.1923ZM19.5418 37.0884C19.7524 37.1476 19.8561 37.1678 20.0321 37.2068C20.3401 38.1886 20.7266 39.6441 21.0378 40.6228H21.0519L21.0566 37.3938C21.2326 37.4297 21.4306 37.4748 21.6129 37.4951V42.6503C21.451 42.63 21.3457 42.6082 21.1839 42.5849C20.8728 41.5984 20.4265 40.2488 20.1185 39.2592H20.1044L20.1185 42.3807C19.9258 42.3442 19.7335 42.3053 19.5418 42.2638V37.0884ZM25.4532 37.612C25.6575 37.5964 25.8241 37.5761 26.0456 37.5465V42.0472C26.4746 42.0285 26.9036 41.9568 27.2996 41.8929L27.2949 42.5708C26.6915 42.669 26.0535 42.7438 25.4548 42.789L25.4532 37.612ZM32.694 40.6275C31.5909 42.0051 30.3244 41.3599 30.4187 38.8244C30.4816 37.1569 31.2735 35.6453 32.6657 35.9788L32.6689 36.6692C30.777 35.8214 30.9043 39.44 31.1352 40.1989C31.3505 40.9049 31.7968 40.7833 32.1331 40.5589L32.1236 39.0208C31.9932 39.0784 31.8534 39.1517 31.7229 39.2062L31.7276 38.586C32.0513 38.4535 32.4033 38.3086 32.694 38.1403V40.6275ZM33.3351 35.3601C33.5143 35.2666 33.6777 35.1731 33.8537 35.0734L33.8725 40.2722C33.6957 40.3706 33.5176 40.4667 33.3383 40.5605L33.3351 35.3601ZM34.5781 34.6619C35.0746 34.3736 35.4769 34.0495 35.9169 33.7253L35.8964 34.4453C35.6152 34.6526 35.3575 34.8349 35.0636 35.0282L35.0683 36.4697C35.3779 36.2936 35.5586 36.1689 35.8462 35.9398L35.8383 36.5476C35.5555 36.7673 35.3512 36.9154 35.0683 37.0837L35.0605 38.8042C35.4156 38.5782 35.6733 38.3896 35.9656 38.1715L35.9624 38.8447C35.5225 39.2062 35.0322 39.574 34.5451 39.8732L34.5781 34.6619ZM36.36 37.7429C36.6774 37.9611 37.2211 37.3704 37.0545 36.6473C36.8707 35.8526 36.2594 35.1637 36.3396 34.1975C36.3411 34.1851 36.4778 32.837 37.3955 32.5191L37.3986 33.1269C36.7905 33.2391 36.767 33.9264 36.7654 33.956C36.7592 34.1174 36.7832 34.2785 36.8361 34.4313C36.9775 34.8006 37.1881 35.2074 37.3421 35.5689C38.002 37.1164 37.1378 38.4208 36.3631 38.4114L36.36 37.7429ZM24.7116 40.2348C24.7116 41.7153 24.4507 42.923 23.4843 42.9183C22.6122 42.9121 22.2555 41.7168 22.2555 40.2363C22.2555 38.7559 22.6122 37.5528 23.4843 37.5528C24.402 37.5528 24.7116 38.7543 24.7116 40.2363V40.2348ZM23.4828 38.2151C23.0349 38.2182 22.804 39.1579 22.804 40.2597C22.804 41.3615 23.0349 42.2576 23.4828 42.2545C23.9275 42.2545 24.1632 41.3615 24.1632 40.2597C24.1632 39.1579 23.9275 38.2135 23.4828 38.2151ZM29.8955 39.613C29.8955 41.0779 29.6362 42.2732 28.6682 42.2685C27.7977 42.2638 27.4394 41.0794 27.4394 39.613C27.4394 38.1465 27.7977 36.9575 28.6682 36.9575C29.5875 36.9575 29.8955 38.1465 29.8955 39.613ZM28.6682 37.6135C28.2204 37.6151 27.9894 38.5455 27.9894 39.6379C27.9894 40.7288 28.2204 41.614 28.6682 41.6124C29.1129 41.6093 29.347 40.7272 29.347 39.6379C29.347 38.547 29.1113 37.6135 28.6682 37.6135Z" fill="white"/>
<path d="M47.1405 24C47.1405 11.434 36.8698 1.24794 24.1994 1.24794C11.529 1.24794 1.25831 11.434 1.25831 24C1.25831 36.566 11.529 46.7521 24.1994 46.7521C36.8698 46.7521 47.1405 36.566 47.1405 24ZM48.3988 24C48.3988 37.2545 37.564 48 24.1994 48C10.8348 48 0 37.2545 0 24C0 10.7455 10.8348 0 24.1994 0C37.564 0 48.3988 10.7455 48.3988 24Z" fill="white"/>
</g>
<defs>
<clipPath id="clip0_957_404">
<rect width="156" height="48" fill="white"/>
</clipPath>
</defs>
</svg>
