<svg width="24" height="24" viewBox="0 0 24 24" fill="none" xmlns="http://www.w3.org/2000/svg">
<path d="M15.4667 0C18.4536 0 19.9471 -5.27181e-08 21.088 0.581313C22.0915 1.09265 22.9074 1.90855 23.4187 2.91209C24 4.05294 24 5.54641 24 8.53335V15.4667C24 18.4536 24 19.9471 23.4187 21.088C22.9074 22.0915 22.0915 22.9074 21.088 23.4187C19.9471 24 18.4536 24 15.4667 24H8.53335C5.54641 24 4.05294 24 2.91204 23.4187C1.90852 22.9074 1.09263 22.0915 0.581313 21.088C-5.27181e-08 19.9471 0 18.4536 0 15.4667V8.53335C0 5.54641 -5.27181e-08 4.05294 0.581313 2.91204C1.09271 1.90856 1.9086 1.09269 2.91209 0.581313C4.05294 -5.27181e-08 5.54641 0 8.53335 0H15.4667ZM8.03894 7.50422C6.8359 7.50422 5.70926 7.96829 4.85913 8.81875C4.00905 9.66928 3.54515 10.7964 3.54515 12C3.54515 13.2036 4.00905 14.3308 4.85913 15.1813C5.70921 16.0318 6.8359 16.4958 8.03894 16.4958C9.24197 16.4958 10.3686 16.0318 11.2187 15.1813L15.1742 11.2241C15.381 11.0171 15.6558 10.8996 15.9498 10.8996C16.2439 10.8996 16.5187 11.0171 16.7255 11.2241C16.9323 11.431 17.0498 11.7058 17.0498 12C17.0498 12.2942 16.9323 12.5691 16.7255 12.776C16.5186 12.9829 16.2439 13.1004 15.9498 13.1004C15.6558 13.1004 15.381 12.9829 15.1742 12.776L15.0984 12.7002L14.5696 13.2292L14.6454 13.3051C14.9889 13.6488 15.4581 13.8433 15.9498 13.8433C16.4416 13.8433 16.9108 13.6488 17.2543 13.3051C17.5979 12.9614 17.7922 12.4919 17.7922 12C17.7922 11.5081 17.5979 11.0386 17.2543 10.695C16.9108 10.3513 16.4416 10.1567 15.9498 10.1567C15.4581 10.1567 14.9889 10.3513 14.6454 10.695L10.6899 14.6522C9.97707 15.3654 9.04501 15.753 8.03894 15.753C7.0328 15.753 6.10086 15.3654 5.38798 14.6522L5.3877 14.652C3.92115 13.1952 3.92077 10.8156 5.38798 9.34783L5.38826 9.34755C6.84425 7.88034 9.22273 7.87995 10.6899 9.34783L10.7657 9.42367L11.2945 8.8946L11.2187 8.81875C10.3686 7.96823 9.24197 7.50422 8.03894 7.50422ZM15.9498 7.50422C14.7468 7.50422 13.6202 7.96829 12.7701 8.81875L8.81461 12.776C8.60781 12.9829 8.33302 13.1004 8.03899 13.1004C7.74496 13.1004 7.47012 12.9829 7.26332 12.776C7.05646 12.5691 6.939 12.2942 6.939 12C6.939 11.7058 7.05646 11.431 7.26332 11.2241C7.47017 11.0171 7.74491 10.8996 8.03899 10.8996C8.33302 10.8996 8.60781 11.0171 8.81461 11.2241L8.8904 11.2998L9.41919 10.7708L9.34341 10.695C8.9999 10.3513 8.5307 10.1567 8.03899 10.1567C7.54728 10.1567 7.07802 10.3513 6.73446 10.695C6.3909 11.0386 6.19654 11.5081 6.19654 12C6.19654 12.4919 6.3909 12.9614 6.73446 13.3051C7.07802 13.6487 7.54728 13.8433 8.03899 13.8433C8.5307 13.8433 8.9999 13.6488 9.34341 13.3051L13.2989 9.34783C14.0118 8.63462 14.9438 8.247 15.9498 8.247C16.9559 8.247 17.888 8.63462 18.6009 9.34783L18.6011 9.34811C20.0676 10.8048 20.068 13.1844 18.6009 14.6522L18.6006 14.6524C17.1445 16.1197 14.7661 16.12 13.2989 14.6522L13.223 14.5764L12.6943 15.1055L12.7701 15.1813C13.6425 16.0541 14.8018 16.4958 15.9498 16.4958C17.1088 16.4958 18.2574 16.054 19.1297 15.1813C19.9798 14.3308 20.4436 13.2036 20.4436 12C20.4436 10.7964 19.9798 9.66928 19.1297 8.81875C18.2796 7.96823 17.1529 7.50422 15.9498 7.50422ZM15.9498 8.83047C15.1026 8.83047 14.3101 9.1543 13.7077 9.75689L9.75186 13.7146L9.75142 13.715C9.29808 14.1789 8.69012 14.4267 8.03899 14.4267C7.38886 14.4267 6.78012 14.1688 6.32568 13.7141L6.32479 13.7133C5.86111 13.2597 5.61335 12.6515 5.61335 12C5.61335 11.3496 5.87123 10.7406 6.32568 10.2859L6.32606 10.2855L6.32645 10.2851C6.77985 9.82118 7.3878 9.57337 8.03899 9.57337C8.68907 9.57337 9.29786 9.83124 9.7523 10.2859L9.82809 10.3618L10.3569 9.83268L10.281 9.75689C9.68973 9.16524 8.88647 8.83047 8.03899 8.83047C7.19179 8.83047 6.39914 9.1543 5.79682 9.75689C5.2055 10.3485 4.87085 11.1521 4.87085 12C4.87085 12.8476 5.1945 13.6406 5.79682 14.2432C6.3882 14.8348 7.19145 15.1696 8.03899 15.1696C8.88619 15.1696 9.67873 14.8458 10.281 14.2432L14.237 10.2855L14.2374 10.2851C14.6908 9.82118 15.2987 9.57337 15.9498 9.57337C16.6 9.57337 17.2087 9.83124 17.6632 10.2859L17.664 10.2868C18.1277 10.7404 18.3754 11.3485 18.3754 12C18.3754 12.6504 18.1176 13.2595 17.6632 13.7141L17.6627 13.7146L17.6624 13.715C17.209 14.1789 16.601 14.4267 15.9498 14.4267C15.2998 14.4267 14.691 14.1688 14.2365 13.7141L14.1607 13.6383L13.6319 14.1673L13.7077 14.2432C14.2991 14.8348 15.1024 15.1696 15.9498 15.1696C16.7973 15.1696 17.6006 14.8348 18.192 14.2432C18.7833 13.6516 19.118 12.8479 19.118 12C19.118 11.1524 18.7943 10.3595 18.192 9.75689C17.6006 9.16524 16.7974 8.83047 15.9498 8.83047Z" fill="white"/>
</svg>
