<svg width="158" height="48" viewBox="0 0 158 48" fill="none" xmlns="http://www.w3.org/2000/svg">
<path d="M73.7391 26.1594H67.1134L70.4257 17.5596L73.7391 26.1594ZM104.719 35.9118H115.17V12.0549H106.186V24.6288L96.7255 12.0549H85.352V31.5081L77.805 12.0549H63.2201L57.7496 26.1594H48.8406C48.3966 28.9787 46.7568 30.4737 43.8882 30.4737C40.5745 30.4737 38.7293 27.9257 38.7293 23.9835C38.7293 20.0419 40.6099 17.5257 43.8882 17.5257C46.5871 17.5257 48.3275 18.9542 48.704 21.2657H58.5751V20.6184C58.5756 15.3507 53.9967 11 43.9907 11C33.1972 11 29.0982 16.3704 29.0982 23.9832C29.0982 24.1577 29.1037 24.3299 29.1074 24.5032C27.7537 22.8648 25.1555 21.9099 20.8681 21.2979L14.6181 20.4138C12.2611 20.0752 10.7924 19.8045 10.7924 18.6481C10.7924 17.6622 11.7141 16.6075 14.2775 16.6075C17.1121 16.6075 18.6842 17.6963 18.6842 19.4634H28.7239V18.9542C28.7239 14.1945 23.9423 11.0677 14.5487 11.0677C4.88523 11.0677 0.647964 14.5694 0.647964 19.4972C0.647964 23.3376 3.1746 25.5812 9.11775 26.3976L16.1885 27.3807C18.7151 27.7216 19.5362 28.2307 19.5362 29.2846C19.5362 30.6437 18.238 31.3939 15.334 31.3939C12.0557 31.3939 10.5553 29.9992 10.5553 28.0624H0V28.6071C0 33.9067 5.02012 36.9648 14.8915 36.9648C24.0128 36.9648 29.3011 34.9603 30.1678 29.8966C31.9927 34.2434 36.2843 37 43.9907 37C49.8355 37 53.1149 35.4156 55.0839 33.0273L53.9655 35.9112H63.3563L64.6882 32.4799H76.164L77.4959 35.9112H85.3517H87.0582H94.3357V22.1809L104.719 35.9118ZM144.678 26.1594H138.053L141.365 17.5596L144.678 26.1594ZM158 35.9118L148.744 12.0549H134.159L126.612 31.5081V12.0522H117.424V35.9118H124.903H126.612H134.294L135.625 32.4804H147.102L148.436 35.9118H158Z" fill="white"/>
</svg>
